<svg width="22" height="22" viewBox="0 0 22 22" fill="none" xmlns="http://www.w3.org/2000/svg">
<path d="M1 9.83314C1 8.60896 1.56058 7.45217 2.52142 6.69361L8.52142 1.95677C9.97466 0.80948 12.0253 0.80948 13.4786 1.95677L19.4786 6.69361C20.4394 7.45217 21 8.60896 21 9.83314V17.0526C21 19.2618 19.2091 21.0526 17 21.0526H15.1579C14.6056 21.0526 14.1579 20.6049 14.1579 20.0526V16.7368C14.1579 15.6323 13.2625 14.7368 12.1579 14.7368H9.8421C8.73753 14.7368 7.84211 15.6323 7.84211 16.7368V20.0526C7.84211 20.6049 7.39439 21.0526 6.84211 21.0526H5C2.79086 21.0526 1 19.2618 1 17.0526L1 9.83314Z" stroke="black" stroke-width="1.5"/>
</svg>
