<svg width="492" height="390" viewBox="0 0 492 390" fill="none" xmlns="http://www.w3.org/2000/svg">
<path opacity="0.18" d="M121.253 336.551C107.582 334.309 94.7129 328.611 83.8684 319.999C71.1138 309.967 57.2294 296.449 57.6562 279.671C58.1082 261.89 64.7617 244.761 71.9675 228.735C81.7092 207.092 95.2672 184.27 91.6769 160.169C88.0865 136.068 92.9071 107.226 105.612 86.812C125.697 54.6604 160.848 46.8608 195.998 46.1084C219.223 45.6319 243.125 47.0112 264.291 56.5664C286.536 66.5981 304.463 85.1567 327.059 93.7589C342.124 99.4268 358.595 100.555 373.333 106.926C391.887 114.976 406.198 130.926 415.463 148.883C424.728 166.84 429.448 186.778 433.038 206.565C438.913 240.021 424.954 281.803 404.842 309.19C391.435 327.397 368.989 348.489 345.915 344.075C228.437 321.804 251.009 357.592 121.253 336.551Z" fill="#5464F4"/>
<g opacity="0.18" filter="url(#filter0_d_20_844)">
<path d="M104.923 354.814C89.4644 352.276 74.9123 345.827 62.65 336.08C48.2279 324.726 32.5282 309.427 33.0109 290.438C33.5219 270.313 41.0452 250.926 49.1932 232.789C60.2085 208.293 75.5391 182.463 71.4793 155.185C67.4195 127.908 72.8704 95.2654 87.2357 72.1604C109.948 35.7714 149.694 26.9438 189.44 26.0922C215.7 25.5529 242.728 27.1141 266.66 37.9286C291.814 49.2824 312.084 70.287 337.635 80.0229C354.669 86.4378 373.293 87.7151 389.958 94.9248C410.938 104.036 427.121 122.089 437.597 142.412C448.073 162.735 453.41 185.301 457.47 207.697C464.113 245.562 448.328 292.85 425.588 323.846C410.427 344.453 385.047 368.325 358.956 363.329C226.12 338.124 251.642 378.628 104.923 354.814Z" fill="#5464F4"/>
</g>
<path d="M279.857 99.3767L358.569 109.835L303.258 115.703L279.857 99.3767Z" fill="#5464F4"/>
<path d="M303.258 115.703L307.451 140.381L314.154 119.891L358.569 109.835L303.258 115.703Z" fill="#5464F4"/>
<path d="M303.258 115.703L307.451 140.381L314.154 119.891L358.569 109.835L303.258 115.703Z" fill="url(#paint0_linear_20_844)"/>
<path d="M330.901 142.488L314.154 119.891L358.569 109.835L330.901 142.488Z" fill="#5464F4"/>
<path d="M307.451 140.381L323.544 132.531L314.154 119.891L307.451 140.381Z" fill="white"/>
<path opacity="0.59" d="M307.451 140.381L323.544 132.531L314.154 119.891L307.451 140.381Z" fill="#5464F4"/>
<path d="M294.169 142.764L293.441 139.478C294.29 139.311 295.128 139.094 295.951 138.826L297.106 141.961C296.146 142.292 295.164 142.56 294.169 142.764Z" fill="#5464F4"/>
<path d="M192.182 295.672C190.349 295.07 188.567 294.468 186.834 293.816L187.989 290.681C189.671 291.308 191.429 291.91 193.212 292.487L192.182 295.672ZM176.364 289.427C174.607 288.574 172.9 287.697 171.343 286.919L172.925 283.885C174.456 284.737 176.088 285.59 177.796 286.393L176.364 289.427ZM311.945 287.371H306.296V284.01L311.844 284.16L311.945 287.371ZM323.243 287.17L323.067 283.834C324.95 283.834 326.808 283.609 328.591 283.433L328.867 286.769C327.11 286.944 325.227 287.07 323.293 287.17H323.243ZM295.073 286.393L289.474 285.816L289.85 282.48C291.708 282.706 293.541 282.881 295.374 283.057L295.073 286.393ZM340.266 285.189L339.689 281.903C341.521 281.577 343.354 281.201 345.087 280.8L345.84 284.06C343.957 284.587 342.074 284.963 340.166 285.289L340.266 285.189ZM356.762 280.775L355.582 277.665C357.339 276.988 359.021 276.286 360.603 275.533L362.059 278.543C360.277 279.446 358.494 280.198 356.661 280.875L356.762 280.775ZM161.903 280.323C160.399 279.11 158.974 277.803 157.634 276.411L160.145 274.104C161.39 275.397 162.715 276.612 164.112 277.74L161.903 280.323ZM371.901 272.549L369.843 269.89C370.721 269.213 371.575 268.486 372.353 267.734L373.785 266.329L376.119 268.712L374.563 270.191C373.785 271.094 372.755 271.897 371.801 272.649L371.901 272.549ZM150.956 266.831C150.101 265.064 149.428 263.216 148.947 261.313L152.211 260.586C152.584 262.315 153.149 263.997 153.893 265.602L150.956 266.831ZM213.473 266.028L208.075 263.821L209.431 260.762C211.113 261.489 212.82 262.216 214.452 262.918L213.473 266.028ZM383.752 260.034L381.015 258.103C382.044 256.645 382.975 255.12 383.802 253.539L386.765 255.069C385.836 256.827 384.787 258.519 383.627 260.135L383.752 260.034ZM197.957 259.081C196.25 258.254 194.567 257.401 192.935 256.573L194.442 253.79C196.074 254.642 197.731 255.495 199.463 256.297L197.957 259.081ZM182.968 251.282C181.336 250.329 179.704 249.35 178.147 248.347L179.93 245.513C181.461 246.491 183.068 247.47 184.675 248.423L182.968 251.282ZM152.085 250.303L148.796 249.677C149.184 247.765 149.721 245.886 150.403 244.059L153.542 245.212C152.948 246.83 152.478 248.49 152.136 250.178L152.085 250.303ZM390.104 244.084L386.765 243.733C386.861 242.9 386.911 242.063 386.916 241.225C386.913 240.387 386.862 239.549 386.765 238.717L390.104 238.366C390.205 239.341 390.255 240.32 390.255 241.3C390.262 242.187 390.228 243.074 390.155 243.958L390.104 244.084ZM168.782 242.027C167.25 240.899 165.719 239.77 164.263 238.617L166.321 235.983C167.753 237.112 169.234 238.215 170.74 239.319L168.782 242.027ZM158.613 235.582L155.827 233.726C156.881 232.196 158.036 230.666 159.266 229.137L161.777 231.243C160.697 232.673 159.593 234.152 158.613 235.582ZM155.701 231.218C154.295 229.914 152.939 228.56 151.659 227.231L154.169 224.898C155.425 226.202 156.68 227.406 158.086 228.786L155.701 231.218ZM383.652 228.535C382.812 226.966 381.864 225.458 380.815 224.02L383.526 222.039C384.666 223.64 385.698 225.316 386.614 227.055L383.652 228.535ZM169.385 223.268L167.1 220.76C168.456 219.506 169.887 218.252 171.368 216.998L173.502 219.506C172.071 220.81 170.69 222.039 169.385 223.268ZM144.277 218.453C143.122 216.898 142.017 215.318 141.038 213.738L143.875 211.957C144.804 213.462 145.859 214.967 146.964 216.447L144.277 218.453ZM373.508 215.945C372.228 214.766 370.822 213.587 369.34 212.434L371.399 209.926C372.956 211.13 374.412 212.434 375.768 213.613L373.508 215.945ZM182.29 212.935L180.457 210.177C181.988 209.123 183.595 208.07 185.177 207.042L186.985 209.876C185.478 210.854 183.796 211.882 182.29 212.935ZM360.277 206.139C358.745 205.186 357.138 204.258 355.506 203.355L357.138 200.421C358.82 201.349 360.478 202.327 362.034 203.28L360.277 206.139ZM196.45 204.283L194.869 201.349C196.501 200.446 198.208 199.568 199.89 198.841L201.397 201.85C199.739 202.502 198.032 203.38 196.45 204.258V204.283ZM135.791 203.631C135.088 201.825 134.46 199.969 133.958 198.164L137.197 197.286C137.674 198.966 138.251 200.697 138.904 202.302L135.791 203.631ZM345.639 198.389L340.618 196.157L341.923 193.073C343.656 193.825 345.413 194.577 347.095 195.355L345.639 198.389ZM211.44 197.11L210.134 194.026C211.841 193.298 213.624 192.571 215.356 191.894L216.587 195.004C214.879 195.581 213.097 196.308 211.44 197.035V197.11ZM330.223 192.095C328.491 191.493 326.733 190.891 324.95 190.314L325.98 187.129C327.788 187.706 329.595 188.333 331.328 188.935L330.223 192.095ZM227.031 191.091L225.977 187.906C227.785 187.33 229.592 186.753 231.4 186.226L232.354 189.436C230.672 190.038 228.789 190.59 227.031 191.091ZM314.28 187.104C312.497 186.652 310.664 186.201 308.882 185.8L309.635 182.539C311.443 182.941 313.301 183.392 315.133 183.869L314.28 187.104ZM132.276 186.627C132.276 185.724 132.276 184.847 132.276 183.969C132.276 183.091 132.276 181.912 132.276 180.909L135.615 181.06C135.615 182.013 135.615 182.966 135.615 183.969C135.615 184.972 135.615 185.649 135.615 186.477L132.276 186.627ZM243.075 186.627L242.322 183.568C244.155 183.141 246.013 182.74 247.845 182.364L248.498 185.649C246.69 185.875 244.858 186.276 243.075 186.677V186.627ZM298.01 183.718L295.951 183.568L292.587 183.166L292.938 179.831L296.428 180.257L298.562 180.583L298.01 183.718ZM259.445 183.718L258.993 180.408C260.876 180.157 262.759 179.956 264.617 179.781L264.944 183.091C263.111 183.242 261.278 183.568 259.445 183.693V183.718ZM275.991 182.414V179.078C277.874 179.078 279.757 179.078 281.64 179.078V182.439C279.682 182.339 277.824 182.364 275.991 182.389V182.414ZM137.021 170.351L133.757 169.624C134.159 167.743 134.686 165.887 135.263 164.081L138.452 165.134C137.881 166.846 137.403 168.587 137.021 170.351ZM142.846 155.303L139.959 153.623C140.931 151.966 141.987 150.358 143.122 148.808L145.834 150.789C144.738 152.228 143.724 153.726 142.796 155.278L142.846 155.303ZM282.594 143.692C280.667 143.594 278.747 143.385 276.845 143.065L277.397 139.754C279.175 140.054 280.969 140.255 282.77 140.356L282.594 143.692ZM153.09 142.739L150.83 140.231C152.236 138.977 153.717 137.723 155.274 136.569L157.283 139.253C155.827 140.381 154.395 141.535 153.09 142.739ZM265.822 139.804C264.045 139.066 262.31 138.228 260.625 137.296L262.232 134.362C263.816 135.22 265.441 135.999 267.103 136.695L265.822 139.804ZM166.522 133.409L164.941 130.45C166.598 129.597 168.33 128.744 169.962 127.942L171.318 131.002C169.761 131.804 168.079 132.607 166.522 133.409ZM251.084 130.901C249.652 129.924 248.131 129.084 246.54 128.393L247.946 125.359C249.706 126.18 251.387 127.163 252.967 128.293L251.084 130.901ZM181.763 127.24L180.783 124.03C182.566 123.503 184.424 123.001 186.282 122.525L187.06 125.785C185.278 126.211 183.495 126.713 181.763 127.24ZM236.246 124.907C234.538 124.506 232.731 124.155 230.873 123.854L231.4 120.569C233.333 120.87 235.216 121.246 237.024 121.672L236.246 124.907ZM198.032 123.704L197.555 120.393C199.413 120.142 201.321 119.917 203.204 119.741L203.506 123.077C201.547 123.377 199.714 123.377 198.032 123.704ZM220.051 122.725C218.244 122.725 216.386 122.575 214.528 122.575V119.239C216.436 119.239 218.344 119.239 220.202 119.39L220.051 122.725Z" fill="#5464F4"/>
<path d="M205.866 299.559L203.054 298.932L203.882 295.672C204.786 295.923 205.665 296.148 206.569 296.349L205.866 299.559Z" fill="#5464F4"/>
<path d="M241.016 165.41C240.939 166.541 240.676 167.651 240.238 168.696C239.856 169.277 239.349 169.765 238.754 170.125C238.159 170.485 237.491 170.708 236.798 170.777C235.417 171.003 234.011 170.903 232.63 171.028C231.249 171.153 229.743 171.956 229.894 173.235C229.965 173.627 230.128 173.997 230.371 174.313L232.053 177.147C232.271 177.425 232.378 177.773 232.354 178.125C232.354 178.602 231.726 178.853 231.274 179.053C230.136 179.633 229.131 180.443 228.322 181.432C227.514 182.421 226.921 183.566 226.579 184.797C225.894 187.258 225.894 189.859 226.579 192.32C226.6 192.493 226.656 192.659 226.742 192.81C226.828 192.961 226.944 193.093 227.082 193.198C227.312 193.323 227.572 193.384 227.835 193.374C228.623 193.507 229.376 193.799 230.049 194.229C230.722 194.66 231.301 195.222 231.752 195.882C232.623 197.25 233.403 198.674 234.087 200.145C235.968 203.669 238.715 206.658 242.071 208.829C245.426 211.001 249.28 212.285 253.269 212.559C253.922 212.624 254.581 212.547 255.202 212.334C255.945 211.958 256.544 211.35 256.909 210.603C258.642 207.443 258.139 203.656 258.265 200.195C258.257 198.478 258.581 196.775 259.219 195.179C259.621 194.276 259.997 194.226 260.575 193.7C260.85 193.519 261.076 193.273 261.234 192.985C261.391 192.696 261.475 192.373 261.479 192.044C261.345 191.191 261.135 190.352 260.851 189.537C260.643 187.961 260.999 186.362 261.855 185.022C262.706 183.711 263.486 182.355 264.19 180.959C264.68 179.663 264.984 178.303 265.094 176.922C265.811 173.396 265.213 169.73 263.412 166.614C262.708 165.619 261.799 164.784 260.747 164.166C259.696 163.548 258.524 163.16 257.311 163.028C256.315 162.999 255.323 162.882 254.348 162.677C252.867 162.2 252.365 160.67 250.808 160.169C249.461 159.699 248.009 159.612 246.615 159.918C245.257 160.209 244.009 160.88 243.018 161.853C242.027 162.825 241.333 164.059 241.016 165.41Z" fill="#473F47"/>
<path d="M248.574 316.136C249.492 316.937 250.28 317.876 250.909 318.92C251.032 319.114 251.085 319.344 251.059 319.572C251.059 319.923 250.582 320.124 250.205 320.224C248.649 320.626 247.003 320.496 245.529 319.855C244.055 319.214 242.837 318.1 242.071 316.688C240.908 315.025 240.278 313.049 240.263 311.02L240.69 307.76C240.741 307.254 240.86 306.756 241.041 306.28C241.284 305.817 241.597 305.393 241.97 305.026C242.59 304.328 243.341 303.757 244.18 303.346C244.277 303.312 244.384 303.312 244.481 303.346C244.682 303.346 244.782 303.597 244.833 303.772C244.972 304.609 244.921 305.466 244.682 306.28C244.39 308.669 244.95 311.085 246.264 313.102C246.899 314.209 247.675 315.229 248.574 316.136Z" fill="#F89659"/>
<path d="M256.985 297.678C257.032 297.932 257.135 298.171 257.286 298.38C257.418 298.553 257.59 298.691 257.788 298.782C258.645 299.137 259.581 299.258 260.5 299.133C261.629 299.133 262.734 298.907 263.839 298.732C264.153 298.735 264.463 298.658 264.74 298.509C265.017 298.36 265.251 298.143 265.421 297.879C265.502 297.581 265.479 297.265 265.356 296.982C265.232 296.7 265.016 296.467 264.743 296.324C264.195 296.044 263.598 295.874 262.985 295.822C262.367 295.743 261.793 295.461 261.353 295.02C260.726 294.242 261.002 293.013 260.349 292.261C259.948 291.961 259.482 291.762 258.988 291.679C258.495 291.596 257.988 291.632 257.512 291.785C255.478 292.412 256.558 296.249 256.985 297.678Z" fill="#F89659"/>
<path d="M265.822 267.809C265.697 268.335 265.596 268.862 265.496 269.389C264.366 275.909 262.985 282.405 261.705 288.9C261.545 290.33 260.969 291.682 260.048 292.788C259.796 293.099 259.473 293.346 259.106 293.508C258.739 293.669 258.339 293.74 257.939 293.716H257.713C256.658 293.365 256.056 291.885 256.056 290.405L256.608 263.821C256.695 263.509 256.695 263.18 256.608 262.868C256.4 262.586 256.124 262.362 255.804 262.216C255.051 261.815 254.323 261.389 253.595 260.962C251.36 259.683 249.176 258.304 247.042 256.874C244.18 254.943 241.393 252.912 238.706 250.73C236.754 249.542 235.205 247.794 234.262 245.714C233.369 243.156 232.346 240.645 231.199 238.19C229.872 235.091 228.293 232.105 226.479 229.262C226.253 228.936 225.399 227.281 224.922 227.206L243.175 229.212C244.794 229.141 246.377 229.698 247.594 230.767C249.583 233.086 251.396 235.551 253.018 238.14C256.809 243.156 260.55 248.347 264.416 253.438C266.003 255.141 267.013 257.3 267.304 259.608C267.088 262.384 266.592 265.132 265.822 267.809Z" fill="#473F47"/>
<path d="M245.084 305.453C244.837 305.795 244.541 306.1 244.205 306.356C243.688 306.805 243.114 307.185 242.498 307.484H242.322C241.622 307.773 240.837 307.773 240.137 307.484C238.305 306.707 238.857 302.217 238.757 300.462C238.581 297.703 238.43 294.97 238.254 292.211C237.953 286.844 237.627 281.477 237.325 276.085C237.175 273.577 236.999 271.069 236.873 268.561L235.944 266.931L235.518 266.204L235.015 265.326L234.488 264.348C234.187 263.846 233.886 263.295 233.559 262.718C233.032 261.74 232.53 260.711 232.003 259.708C231.674 259.035 231.305 258.381 230.898 257.752C230.763 257.54 230.612 257.338 230.446 257.15C229.441 256.062 228.358 255.048 227.207 254.116C223.734 250.884 221.423 246.601 220.629 241.927C220.421 240.651 220.337 239.357 220.378 238.065C220.405 236.056 220.726 234.062 221.332 232.146C221.807 230.779 222.412 229.46 223.14 228.209C223.711 227.096 224.476 226.094 225.399 225.249C225.831 224.85 226.323 224.52 226.856 224.271C230.32 222.691 233.835 226.629 236.246 228.71C238.656 230.792 242.824 233.726 244.13 236.861C245.435 239.996 247.896 266.329 247.896 266.329C247.896 272.8 247.896 279.27 247.519 285.715C247.368 289.552 247.193 293.39 246.816 297.202C246.799 300.04 246.21 302.846 245.084 305.453Z" fill="#473F47"/>
<path d="M242.498 307.484H242.322C241.622 307.773 240.837 307.773 240.137 307.484C238.305 306.707 238.857 302.217 238.756 300.462C238.581 297.703 238.43 294.97 238.254 292.211C237.953 286.844 237.627 281.477 237.325 276.085C237.175 273.577 236.999 271.069 236.873 268.561L235.944 266.931L235.518 266.204L235.015 265.326L234.488 264.348C234.187 263.846 233.886 263.295 233.559 262.718L231.777 259.533L230.446 257.025C229.441 255.937 228.358 254.923 227.207 253.99C223.758 250.792 221.449 246.556 220.629 241.927C220.421 240.651 220.337 239.357 220.378 238.065C220.405 236.056 220.726 234.062 221.332 232.146C221.807 230.779 222.412 229.46 223.14 228.209C223.711 227.096 224.476 226.094 225.399 225.249C225.601 225.435 225.779 225.646 225.927 225.876C227.835 228.61 227.734 232.196 227.935 235.532C228.061 239.693 228.911 243.8 230.446 247.67L231.124 249.05C231.214 249.247 231.315 249.439 231.425 249.626C234.042 253.773 236.366 258.097 238.38 262.567C242.322 272.599 240.891 283.584 241.393 294.217C241.548 297.159 241.866 300.089 242.347 302.995C242.643 304.473 242.694 305.99 242.498 307.484Z" fill="url(#paint1_linear_20_844)"/>
<path d="M298.738 225.325C297.709 225.325 296.679 225.325 295.675 225.325C294.62 225.241 293.586 224.987 292.612 224.572C291.683 224.146 290.905 223.494 289.951 223.093C287.992 222.24 285.858 221.839 283.95 220.861C281.063 219.406 278.276 217.751 275.514 216.121L268.835 212.158C266.579 210.869 264.392 209.462 262.282 207.945L261.052 206.992C260.449 206.49 259.696 205.938 258.943 206.164C258.637 206.309 258.364 206.513 258.139 206.766C257.266 207.961 256.713 209.36 256.533 210.829C256.202 212.109 255.704 213.34 255.051 214.49C253.821 216.748 252.666 219.055 251.335 221.237C250.368 223.371 249.005 225.303 247.318 226.93C246.21 227.516 244.944 227.735 243.703 227.557C241.049 227.201 238.367 227.101 235.693 227.256C234.47 227.544 233.229 227.745 231.977 227.858C230.044 227.817 228.172 227.167 226.63 226.002C225.274 224.948 225.876 223.494 226.429 222.114C228.538 216.622 230.622 213.412 228.161 207.769C228.638 208.873 218.419 212.785 217.139 212.785C211.791 212.785 208.602 208.873 204.585 205.838C202.197 204.087 199.679 202.519 197.053 201.148C196.255 200.684 195.414 200.298 194.542 199.995C193.714 199.719 192.634 199.744 192.031 199.167C191.78 198.938 191.561 198.676 191.379 198.39C191.046 197.872 190.776 197.316 190.575 196.734C190.407 196.041 190.051 195.408 189.546 194.903C188.788 194.46 187.889 194.326 187.035 194.527C186.576 194.577 186.113 194.577 185.654 194.527C185.567 194.525 185.481 194.503 185.403 194.464C185.325 194.425 185.257 194.37 185.202 194.302C185.139 194.219 185.105 194.117 185.105 194.013C185.105 193.909 185.139 193.808 185.202 193.725C185.377 193.606 185.573 193.521 185.78 193.474L189.219 192.747C188.24 191.894 186.709 192.12 185.504 191.718C185.341 191.675 185.194 191.588 185.077 191.468C185.018 191.328 185.016 191.171 185.073 191.03C185.129 190.889 185.239 190.776 185.378 190.715C185.673 190.626 185.987 190.626 186.282 190.715L189.998 191.142C188.893 189.787 186.533 190.189 185.403 188.859C185.842 188.566 186.348 188.387 186.874 188.338C187.401 188.29 187.931 188.374 188.416 188.584C189.862 188.79 191.263 189.239 192.559 189.913C193.346 190.371 194.072 190.927 194.718 191.568C197.2 194.259 199.868 196.773 202.702 199.092C204.683 200.382 206.828 201.403 209.079 202.126C210.059 202.477 211.088 202.703 212.067 203.029C213.046 203.355 214.277 203.957 215.356 204.409C215.758 204.622 216.207 204.734 216.662 204.735C217.027 204.665 217.376 204.529 217.691 204.333C219.958 202.946 221.964 201.172 223.617 199.092C225.399 196.985 227.483 195.129 229.366 193.123C230.096 192.262 231.004 191.569 232.028 191.091C233.936 190.439 235.97 191.392 238.003 191.468C238.851 191.509 239.699 191.373 240.49 191.066C241.282 190.759 242 190.289 242.598 189.687C243.778 188.308 243.728 186.251 245.109 184.872C245.884 184.138 246.849 183.634 247.896 183.417C249.043 183.046 250.16 182.585 251.235 182.038C252.089 181.637 253.168 181.26 253.921 181.837C254.038 181.913 254.134 182.017 254.2 182.14C254.266 182.263 254.299 182.4 254.298 182.539C254.293 182.783 254.214 183.019 254.072 183.217C253.538 184.26 253.061 185.332 252.641 186.427C252.1 187.531 251.891 188.768 252.038 189.988C252.39 191.718 254.549 192.697 256.005 193.323C258.114 194.226 260.449 194.377 262.558 195.23C264.661 196.2 266.548 197.581 268.107 199.292C270.618 201.8 272.702 204.308 274.987 206.816C276.142 208.07 277.322 209.324 278.602 210.503C280.303 211.702 282.1 212.759 283.975 213.663C286.048 215.023 288.222 216.222 290.478 217.249C292.089 217.97 293.772 218.516 295.499 218.879C296.202 219.082 296.914 219.249 297.634 219.381C298.387 219.381 298.788 219.13 299.416 218.754C300.374 218.255 301.48 218.121 302.529 218.378C304.795 218.88 306.916 219.892 308.731 221.337C309.258 221.688 309.836 222.215 309.735 222.842C309.762 222.923 309.762 223.011 309.735 223.093C309.534 223.268 309.233 223.093 309.007 222.917C308.23 222.356 307.275 222.098 306.321 222.19C307.024 222.741 307.777 223.419 307.702 224.296C307.727 224.361 307.727 224.432 307.702 224.497C307.667 224.515 307.628 224.524 307.589 224.524C307.549 224.524 307.511 224.515 307.476 224.497C306.697 224.497 306.12 223.77 305.392 223.419C304.685 223.096 303.907 222.958 303.132 223.017C302.781 223.017 301.651 223.017 301.651 223.469C301.629 223.542 301.629 223.621 301.651 223.694C301.861 223.967 302.106 224.212 302.379 224.422C302.515 224.524 302.619 224.664 302.677 224.825C302.735 224.985 302.744 225.159 302.705 225.325C302.529 225.676 302.052 225.726 301.651 225.701C300.596 225.651 299.692 225.425 298.738 225.325Z" fill="#F89659"/>
<path d="M295.575 224.973C295.3 225.144 294.992 225.255 294.671 225.299C293.632 225.227 292.648 224.803 291.884 224.096C289.301 222.813 286.633 221.707 283.9 220.785C281.012 219.331 278.225 217.675 275.464 216.045L268.835 212.158C266.579 210.869 264.392 209.462 262.282 207.945C262.86 208.371 265.245 204.76 265.647 204.434C267.982 202.528 267.153 206.615 267.103 207.995C267.052 208.268 267.052 208.549 267.103 208.822C267.284 209.179 267.574 209.469 267.931 209.65C272.149 212.409 276.493 214.967 280.962 217.324C283.222 218.503 285.557 219.581 287.842 220.735C289.725 221.688 291.758 222.24 293.717 223.017C294.545 223.343 295.474 223.845 295.499 224.723C295.537 224.802 295.563 224.887 295.575 224.973Z" fill="#D57439"/>
<path d="M243.853 186.301C243.913 187.179 243.703 188.054 243.251 188.809C242.598 189.687 246.967 190.841 248.272 189.587C249.634 188.059 250.892 186.442 252.038 184.746L243.853 186.301Z" fill="#D57439"/>
<path d="M249.025 186.602C247.626 187.146 246.096 187.259 244.632 186.928C243.907 186.749 243.231 186.411 242.653 185.938C242.075 185.465 241.61 184.87 241.292 184.195C240.976 183.276 240.848 182.304 240.916 181.336C241.075 176.64 242.689 172.11 245.536 168.37C245.955 167.75 246.503 167.228 247.142 166.84C248.01 166.421 249.001 166.332 249.929 166.589C251.717 167.061 253.303 168.099 254.449 169.548C255.583 170.977 256.544 172.534 257.311 174.188C257.863 175.216 258.893 176.846 258.416 178.05C257.72 179.163 256.875 180.175 255.905 181.06C254.163 183.501 251.783 185.419 249.025 186.602Z" fill="#F89659"/>
<path d="M250.406 227.306C249.819 228.24 248.986 228.995 247.999 229.49C247.012 229.986 245.908 230.201 244.807 230.115C240.464 230.466 236.095 229.337 231.777 230.115C230.446 230.34 229.266 230.742 227.81 230.842H227.433C226.702 230.911 225.965 230.808 225.281 230.543C224.597 230.277 223.984 229.856 223.491 229.312C222.135 227.532 222.989 224.973 223.868 222.892C225.5 219.155 228.563 214.867 226.805 210.703C226.579 210.252 226.278 209.851 226.077 209.399C225.871 208.909 225.727 208.395 225.65 207.869L224.998 204.659C224.546 202.528 224.119 200.396 223.667 198.239C223.566 197.81 223.566 197.364 223.667 196.935C223.888 196.374 224.284 195.899 224.797 195.581L229.341 191.969C230.225 191.141 231.292 190.531 232.455 190.189C233.688 190.081 234.931 190.148 236.145 190.389C237.762 190.33 239.364 190.069 240.916 189.612C241.117 189.612 241.343 189.612 241.493 189.612C241.65 189.764 241.74 189.971 241.744 190.189C241.919 190.894 242.244 191.553 242.698 192.12C243.023 192.52 243.376 192.897 243.753 193.248L244.23 193.7L246.967 196.208C247.541 196.814 248.211 197.322 248.95 197.712C251.461 198.841 253.244 195.831 253.118 193.599C252.974 192.346 252.599 191.13 252.013 190.013C253.168 190.464 254.323 190.966 255.478 191.493C256.524 192.116 257.615 192.66 258.742 193.123C260.5 193.599 262.182 193.123 263.764 194.226C265.853 195.584 267.775 197.183 269.488 198.991L268.333 201.65C266.802 204.86 265.019 208.321 261.755 209.725C260.901 210.076 260.023 210.302 259.244 210.703C257.838 211.406 257.688 212.509 257.06 213.763C255.98 215.945 254.901 218.127 253.921 220.334C252.94 222.749 251.765 225.081 250.406 227.306Z" fill="white"/>
<path d="M254.951 195.932C255.154 195.684 255.412 195.487 255.704 195.355C255.943 195.292 256.194 195.292 256.432 195.355C259.596 195.606 262.759 195.957 265.898 196.383C262.006 192.922 255.855 193.073 251.687 190.138C251.109 191.217 251.687 192.471 251.988 193.65C252.164 194.712 252.164 195.797 251.988 196.86C252.52 196.983 253.075 196.962 253.596 196.798C254.117 196.635 254.585 196.336 254.951 195.932Z" fill="url(#paint2_linear_20_844)"/>
<path d="M193.563 198.615C192.869 198.796 192.133 198.734 191.479 198.44C191.142 197.925 190.872 197.368 190.676 196.784C190.507 196.091 190.151 195.458 189.646 194.954C188.888 194.513 187.99 194.378 187.136 194.577C187.61 194.278 188.156 194.113 188.717 194.101C189.019 194.092 189.314 194.009 189.576 193.861C189.839 193.712 190.061 193.502 190.224 193.248C190.224 193.048 190.224 192.797 190.475 192.621C190.726 192.446 191.128 192.396 191.479 192.446C192.189 192.617 192.879 192.86 193.538 193.173C194.011 193.347 194.446 193.611 194.818 193.95C194.998 194.085 195.148 194.254 195.261 194.448C195.373 194.642 195.445 194.857 195.471 195.079C195.245 195.079 194.919 194.828 194.693 194.703C194.405 194.553 194.102 194.436 193.789 194.352C193.151 194.182 192.489 194.122 191.831 194.176C191.831 194.176 191.63 194.176 191.605 194.176C191.58 194.176 191.605 194.402 191.755 194.477C192.684 195.204 193.864 195.556 194.768 196.333C194.915 196.419 195.03 196.551 195.095 196.709C195.181 196.918 195.181 197.152 195.095 197.361C194.972 197.686 194.765 197.973 194.497 198.193C194.228 198.413 193.906 198.559 193.563 198.615Z" fill="#D57439"/>
<path d="M267.128 296.575C266.749 296.362 266.328 296.234 265.895 296.2C265.461 296.165 265.025 296.225 264.617 296.374C264.241 296.628 263.88 296.904 263.538 297.202C262.457 297.629 261.254 297.629 260.173 297.202C258.986 296.831 257.767 296.571 256.533 296.424C256.533 296.424 256.533 298.932 256.985 299.158C257.575 299.364 258.193 299.482 258.817 299.509C261.318 299.831 263.849 299.831 266.35 299.509C267.053 299.358 269.413 298.982 269.739 298.205C270.065 297.427 267.781 296.8 267.128 296.575Z" fill="#5464F4"/>
<path d="M252.591 319.397C253.044 319.901 253.333 320.53 253.419 321.202C253.431 321.437 253.36 321.667 253.218 321.855C253.05 321.981 252.85 322.059 252.641 322.08C250.991 322.443 249.288 322.494 247.619 322.231C245.974 321.974 244.467 321.159 243.351 319.923C242.623 319.046 242.146 317.992 241.468 317.089C240.79 316.187 240.163 315.61 239.635 314.782C239.108 313.955 239.635 312.475 240.037 311.572C240.489 311.572 240.338 312.45 240.539 312.851C241.223 314.325 242.196 315.647 243.401 316.738C243.917 317.329 244.548 317.807 245.257 318.144C245.965 318.48 246.735 318.668 247.519 318.695C247.804 318.695 248.085 318.626 248.339 318.496C248.592 318.365 248.811 318.175 248.975 317.942C249.226 317.541 248.975 316.613 249.402 316.462C249.829 316.312 252.189 318.996 252.591 319.397Z" fill="#5464F4"/>
<path d="M258.039 293.716H257.813C256.759 293.365 256.156 291.885 256.156 290.405L256.608 263.821C256.695 263.509 256.695 263.18 256.608 262.868C256.4 262.586 256.124 262.362 255.804 262.216C255.051 261.815 254.323 261.389 253.595 260.962C251.36 259.683 249.176 258.304 247.042 256.874L245.736 246.266C245.736 246.266 258.968 255.018 260.349 259.131C261.73 263.244 258.039 293.716 258.039 293.716Z" fill="url(#paint3_linear_20_844)"/>
<path d="M251.737 175.291C252.735 175.66 253.759 175.953 254.8 176.169C255.83 176.52 256.859 177.298 256.884 178.351C257.763 178.351 258.24 177.348 258.491 176.52C258.999 175.137 259.337 173.697 259.495 172.232C259.637 170.763 259.284 169.289 258.491 168.044C257.06 166.012 251.762 162.2 250.08 165.761C248.799 168.52 248.649 173.686 251.737 175.291Z" fill="#473F47"/>
<path d="M278.376 284.386C276.518 284.085 274.66 283.784 272.802 283.433L273.405 280.148C275.238 280.474 277.071 280.8 278.903 281.076L278.376 284.386Z" fill="#5464F4"/>
<path d="M261.68 281.226C259.847 280.825 258.039 280.399 256.206 279.947L256.985 276.712L262.408 277.966L261.68 281.226Z" fill="#5464F4"/>
<path d="M245.284 277.113L239.861 275.533L240.84 272.323C242.623 272.875 244.406 273.376 246.188 273.878L245.284 277.113Z" fill="#5464F4"/>
<path d="M229.14 272.072C227.383 271.47 225.6 270.843 223.843 270.191L224.998 267.056L230.245 268.912L229.14 272.072Z" fill="#5464F4"/>
<path d="M311.392 227.356L337.228 172.733L383.376 183.718L357.088 238.943L311.392 227.356Z" fill="#5464F4"/>
<path d="M118.09 109.835L197.43 84.5298L217.264 166.439L150.855 200.396L118.09 109.835Z" fill="white"/>
<path d="M113.495 272.072L151.232 295.672L163.911 253.664L122.283 225.299L113.495 272.072Z" fill="#5464F4"/>
<path d="M312.02 316.989L319.201 270.016L373.785 266.429L362.059 311.873L312.02 316.989Z" fill="white"/>
<path d="M329.897 219.531L325.126 218.453L328.867 211.054L333.663 212.133L329.897 219.531Z" fill="white"/>
<path d="M335.797 220.835L331.001 219.782L338.659 204.709L343.455 205.763L335.797 220.835Z" fill="#5464F4"/>
<path d="M341.697 222.165L336.902 221.086L341.572 211.907L346.342 212.986L341.697 222.165Z" fill="white"/>
<path d="M347.572 223.494L342.802 222.415L352.895 202.578L357.666 203.656L347.572 223.494Z" fill="#5464F4"/>
<path d="M335.797 220.835L331.001 219.782L338.659 204.709L343.455 205.763L335.797 220.835Z" fill="url(#paint4_linear_20_844)"/>
<path d="M347.572 223.494L342.802 222.415L352.895 202.578L357.666 203.656L347.572 223.494Z" fill="url(#paint5_linear_20_844)"/>
<path d="M353.473 224.823L348.702 223.745L361.607 198.364L366.378 199.443L353.473 224.823Z" fill="white"/>
<path d="M158.287 136.594C158.276 134.412 158.747 132.254 159.668 130.274L150.328 125.133C148.551 128.692 147.631 132.617 147.641 136.594C147.66 142.355 149.597 147.947 153.147 152.487C156.697 157.028 161.659 160.26 167.25 161.673L169.159 151.065C166.035 150.132 163.294 148.222 161.337 145.618C159.38 143.013 158.311 139.851 158.287 136.594Z" fill="#473F47"/>
<path opacity="0.18" d="M195.823 149.936C193.501 153.772 190.226 156.943 186.314 159.14C182.403 161.337 177.989 162.487 173.502 162.476C171.351 162.477 169.209 162.207 167.125 161.673L169.033 151.065C170.483 151.499 171.989 151.719 173.502 151.717C176.063 151.722 178.584 151.081 180.832 149.853C183.079 148.626 184.979 146.851 186.357 144.695L195.823 149.936Z" fill="#5464F4"/>
<path d="M199.513 136.594C199.52 141.294 198.244 145.907 195.823 149.936L186.357 144.795C187.499 143.036 188.265 141.059 188.606 138.99C188.948 136.921 188.858 134.804 188.341 132.771C187.825 130.738 186.894 128.834 185.606 127.178C184.319 125.522 182.702 124.149 180.859 123.146C179.015 122.143 176.984 121.531 174.892 121.349C172.801 121.167 170.694 121.418 168.705 122.087C166.715 122.757 164.886 123.829 163.33 125.238C161.775 126.647 160.528 128.362 159.668 130.274L150.328 125.133C152.916 119.869 157.213 115.636 162.518 113.123C167.823 110.61 173.824 109.965 179.542 111.294C185.261 112.624 190.36 115.848 194.009 120.442C197.659 125.036 199.643 130.73 199.639 136.594H199.513Z" fill="#5464F4"/>
<path d="M328.591 302.493C328.584 302.35 328.607 302.207 328.659 302.073C328.711 301.939 328.791 301.817 328.892 301.716C329.36 301.241 329.697 300.653 329.872 300.011C329.978 299.606 329.956 299.178 329.807 298.787C329.659 298.396 329.392 298.061 329.043 297.829C328.615 297.506 328.129 297.268 327.612 297.126C327.355 297.056 327.133 296.896 326.985 296.674C326.837 296.453 326.775 296.186 326.808 295.923C326.808 295.597 326.808 295.245 326.808 294.919C326.818 294.768 326.857 294.62 326.925 294.483C326.992 294.347 327.085 294.225 327.199 294.125C327.314 294.025 327.447 293.948 327.591 293.899C327.735 293.851 327.887 293.831 328.039 293.841C328.533 293.834 329.021 293.723 329.47 293.515C329.953 293.328 330.348 292.967 330.577 292.502C330.805 292.037 330.849 291.503 330.7 291.007C330.579 290.568 330.419 290.14 330.223 289.728C330.107 289.49 330.079 289.219 330.144 288.962C330.208 288.705 330.36 288.479 330.575 288.324C330.836 288.137 331.088 287.936 331.328 287.722C331.551 287.551 331.825 287.458 332.106 287.458C332.387 287.458 332.661 287.551 332.884 287.722C333.252 288.092 333.687 288.39 334.165 288.599C334.601 288.785 335.087 288.817 335.544 288.689C336 288.561 336.399 288.282 336.676 287.897C337.007 287.444 337.254 286.934 337.404 286.393C337.49 286.14 337.664 285.928 337.895 285.794C338.126 285.66 338.397 285.615 338.659 285.665H339.663C339.932 285.69 340.181 285.815 340.363 286.014C340.544 286.214 340.644 286.474 340.643 286.744C340.67 287.392 340.841 288.026 341.145 288.599C341.367 288.971 341.698 289.266 342.093 289.445C342.488 289.625 342.928 289.679 343.354 289.603C343.843 289.5 344.316 289.331 344.76 289.101C345.018 288.951 345.324 288.906 345.614 288.976C345.905 289.046 346.156 289.226 346.317 289.477C346.493 289.778 346.769 290.029 346.97 290.33C347.105 290.541 347.166 290.791 347.144 291.041C347.121 291.291 347.016 291.526 346.844 291.709C346.464 292.098 346.165 292.558 345.965 293.064C345.743 293.556 345.723 294.117 345.911 294.624C346.099 295.131 346.48 295.543 346.97 295.772C347.335 295.988 347.722 296.164 348.125 296.299C348.363 296.366 348.572 296.512 348.718 296.712C348.863 296.912 348.937 297.155 348.928 297.402C348.928 297.804 348.928 298.205 348.777 298.631C348.74 298.895 348.607 299.135 348.403 299.307C348.199 299.478 347.939 299.568 347.673 299.559C347.081 299.585 346.5 299.73 345.965 299.985C345.56 300.177 345.229 300.498 345.024 300.897C344.82 301.296 344.754 301.752 344.836 302.192C344.917 302.707 345.078 303.207 345.313 303.672C345.395 303.796 345.451 303.936 345.478 304.082C345.505 304.229 345.502 304.379 345.469 304.525C345.436 304.67 345.374 304.807 345.287 304.928C345.2 305.048 345.089 305.15 344.961 305.227L344.258 305.754C344.051 305.959 343.771 306.074 343.48 306.074C343.188 306.074 342.908 305.959 342.701 305.754C342.292 305.364 341.804 305.065 341.27 304.876C340.823 304.7 340.329 304.684 339.872 304.83C339.414 304.976 339.021 305.276 338.76 305.678C338.449 306.11 338.22 306.595 338.082 307.108C338.007 307.353 337.846 307.563 337.63 307.701C337.414 307.839 337.156 307.895 336.902 307.86L335.722 307.71C335.481 307.666 335.262 307.544 335.098 307.362C334.935 307.181 334.836 306.95 334.818 306.707C334.81 306.1 334.673 305.501 334.416 304.951C334.211 304.487 333.841 304.114 333.377 303.906C332.914 303.698 332.389 303.668 331.905 303.823C331.432 303.952 330.97 304.12 330.524 304.324C330.299 304.44 330.041 304.478 329.791 304.432C329.542 304.387 329.314 304.261 329.143 304.073C328.892 303.747 328.641 303.446 328.415 303.095C328.302 302.9 328.217 302.688 328.164 302.468L328.591 302.493ZM337.981 293.089C337.255 293.084 336.544 293.294 335.938 293.694C335.332 294.093 334.858 294.663 334.577 295.332C334.295 296 334.219 296.737 334.358 297.449C334.496 298.161 334.844 298.816 335.355 299.33C335.867 299.845 336.52 300.196 337.232 300.34C337.943 300.483 338.682 300.412 339.353 300.135C340.024 299.859 340.598 299.39 341.002 298.787C341.406 298.184 341.622 297.475 341.622 296.75C341.622 296.265 341.525 295.785 341.338 295.337C341.151 294.89 340.876 294.484 340.53 294.143C340.185 293.803 339.775 293.534 339.324 293.353C338.874 293.172 338.392 293.082 337.906 293.089H337.981Z" fill="#5464F4"/>
<path d="M356.36 291.86C356.372 292.002 356.372 292.144 356.36 292.286C356.352 292.46 356.286 292.626 356.172 292.758C356.058 292.89 355.903 292.98 355.732 293.013L354.979 293.214C354.782 293.268 354.573 293.249 354.389 293.162C354.204 293.074 354.058 292.924 353.975 292.738C353.799 292.437 353.623 292.136 353.422 291.86C353.29 291.684 353.123 291.537 352.932 291.428C352.74 291.32 352.528 291.251 352.309 291.228C352.09 291.204 351.869 291.226 351.659 291.292C351.449 291.357 351.254 291.465 351.087 291.609C350.835 291.797 350.6 292.007 350.384 292.236C350.253 292.387 350.074 292.487 349.876 292.519C349.679 292.551 349.477 292.513 349.305 292.412L348.702 292.06C348.492 291.957 348.33 291.777 348.251 291.557C348.171 291.337 348.18 291.095 348.275 290.882C348.398 290.534 348.474 290.171 348.501 289.803C348.53 289.403 348.402 289.007 348.144 288.698C347.887 288.389 347.52 288.192 347.12 288.148C346.727 288.123 346.333 288.123 345.94 288.148C345.744 288.143 345.556 288.066 345.413 287.932C345.27 287.798 345.18 287.616 345.162 287.421C345.127 287.208 345.076 286.999 345.011 286.794C344.95 286.59 344.964 286.371 345.052 286.178C345.139 285.984 345.295 285.829 345.488 285.74C345.865 285.56 346.212 285.323 346.518 285.038C346.791 284.792 346.965 284.455 347.007 284.09C347.048 283.725 346.955 283.358 346.744 283.057C346.54 282.787 346.322 282.527 346.091 282.28C345.986 282.212 345.896 282.124 345.827 282.019C345.759 281.914 345.714 281.796 345.695 281.673C345.676 281.549 345.683 281.423 345.717 281.303C345.751 281.183 345.81 281.071 345.89 280.975L346.191 280.424C346.302 280.241 346.474 280.105 346.678 280.04C346.881 279.976 347.101 279.987 347.296 280.073C347.724 280.252 348.19 280.321 348.652 280.273C348.968 280.265 349.273 280.152 349.518 279.952C349.764 279.753 349.936 279.477 350.008 279.17C350.1 278.758 350.143 278.337 350.133 277.916C350.116 277.723 350.164 277.529 350.268 277.366C350.373 277.203 350.528 277.079 350.711 277.013L351.59 276.812C351.789 276.757 352.003 276.781 352.185 276.879C352.368 276.977 352.505 277.142 352.569 277.339C352.763 277.789 353.065 278.185 353.447 278.493C353.728 278.729 354.084 278.859 354.452 278.859C354.819 278.859 355.175 278.729 355.456 278.493C355.683 278.32 355.893 278.127 356.084 277.916C356.215 277.759 356.396 277.651 356.597 277.61C356.797 277.569 357.006 277.597 357.189 277.69L357.917 278.116C358.085 278.22 358.211 278.381 358.271 278.57C358.33 278.759 358.321 278.963 358.243 279.145C358.083 279.552 358.006 279.987 358.017 280.424C358.019 280.802 358.157 281.167 358.406 281.452C358.655 281.738 358.998 281.924 359.373 281.979H360.427C360.64 281.957 360.852 282.018 361.02 282.149C361.189 282.279 361.3 282.47 361.331 282.681C361.331 282.932 361.457 283.182 361.507 283.433C361.563 283.619 361.545 283.82 361.456 283.993C361.367 284.166 361.214 284.298 361.03 284.361C360.622 284.535 360.254 284.791 359.95 285.113C359.713 285.343 359.559 285.646 359.513 285.973C359.468 286.3 359.533 286.633 359.699 286.919C359.917 287.269 360.178 287.589 360.478 287.872C360.656 288.011 360.775 288.212 360.813 288.435C360.85 288.658 360.802 288.887 360.678 289.076L360.327 289.653C360.279 289.753 360.211 289.842 360.128 289.916C360.045 289.989 359.947 290.045 359.842 290.08C359.736 290.115 359.625 290.129 359.514 290.12C359.404 290.111 359.296 290.08 359.197 290.029C358.659 289.855 358.079 289.855 357.54 290.029C357.267 290.112 357.022 290.267 356.831 290.48C356.641 290.692 356.513 290.953 356.46 291.233C356.434 291.516 356.434 291.802 356.46 292.085L356.36 291.86ZM353.247 282.229C352.885 282.226 352.527 282.294 352.192 282.43C351.857 282.566 351.552 282.767 351.295 283.021C351.038 283.275 350.835 283.578 350.696 283.911C350.556 284.244 350.485 284.602 350.485 284.963C350.48 285.51 350.638 286.045 350.938 286.502C351.238 286.959 351.668 287.317 352.172 287.53C352.676 287.742 353.232 287.8 353.77 287.697C354.307 287.593 354.802 287.332 355.19 286.948C355.579 286.563 355.845 286.071 355.953 285.536C356.062 285 356.009 284.444 355.801 283.938C355.592 283.433 355.238 283 354.784 282.696C354.329 282.392 353.794 282.229 353.247 282.229Z" fill="#5464F4"/>
<path d="M135.213 272.173C141.772 272.173 147.089 266.862 147.089 260.31C147.089 253.759 141.772 248.448 135.213 248.448C128.654 248.448 123.337 253.759 123.337 260.31C123.337 266.862 128.654 272.173 135.213 272.173Z" fill="#473F47"/>
<path d="M135.263 246.266V260.762L148.043 251.557C148.043 251.557 142.143 245.137 135.263 246.266Z" fill="white"/>
<path d="M218.068 300.638L202.326 305.051L207.774 315.56L218.947 312.425L218.068 300.638Z" fill="#5464F4"/>
<path d="M218.068 300.638L202.326 305.051L207.774 315.56L218.947 312.425L218.068 300.638Z" fill="url(#paint6_linear_20_844)"/>
<path d="M192.509 278.668C192.367 279.57 192.453 280.492 192.76 281.352C193.657 285.393 195.255 289.246 197.48 292.738C200.97 297.753 206.418 300.888 211.691 303.923C211.239 303.547 211.314 300.763 211.239 300.136L210.862 296.424C210.541 294.464 209.777 292.603 208.628 290.982C206.327 287.201 203.16 284.021 199.388 281.703C197.25 280.372 194.934 279.35 192.509 278.668Z" fill="#5464F4"/>
<path d="M192.509 278.668C192.367 279.57 192.453 280.492 192.76 281.352C193.657 285.393 195.255 289.246 197.48 292.738C200.97 297.753 206.418 300.888 211.691 303.923C211.239 303.547 211.314 300.763 211.239 300.136L210.862 296.424C210.541 294.464 209.777 292.603 208.628 290.982C206.327 287.201 203.16 284.021 199.388 281.703C197.25 280.372 194.934 279.35 192.509 278.668Z" fill="url(#paint7_linear_20_844)"/>
<path d="M214.201 286.392C214.738 283.076 214.831 279.702 214.478 276.361C214.079 272.961 212.345 269.857 209.657 267.734L205.715 281.577C204.816 284.203 204.333 286.953 204.284 289.728C204.492 292.46 205.27 295.118 206.567 297.533C207.864 299.947 209.652 302.064 211.816 303.747C213.072 301.766 212.795 298.205 213.072 295.872L214.201 286.392Z" fill="#5464F4"/>
<path d="M214.201 286.392C214.738 283.076 214.831 279.702 214.478 276.361C214.079 272.961 212.345 269.857 209.657 267.734L205.715 281.577C204.816 284.203 204.333 286.953 204.284 289.728C204.492 292.46 205.27 295.118 206.567 297.533C207.864 299.947 209.652 302.064 211.816 303.747C213.072 301.766 212.795 298.205 213.072 295.872L214.201 286.392Z" fill="url(#paint8_linear_20_844)"/>
<path d="M217.584 296.624L200.691 301.376C199.276 301.774 198.451 303.237 198.847 304.644C199.244 306.05 200.712 306.868 202.127 306.47L219.02 301.717C220.435 301.319 221.26 299.856 220.864 298.45C220.467 297.043 218.999 296.226 217.584 296.624Z" fill="#5464F4"/>
<defs>
<filter id="filter0_d_20_844" x="23" y="16" width="446" height="358" filterUnits="userSpaceOnUse" color-interpolation-filters="sRGB">
<feFlood flood-opacity="0" result="BackgroundImageFix"/>
<feColorMatrix in="SourceAlpha" type="matrix" values="0 0 0 0 0 0 0 0 0 0 0 0 0 0 0 0 0 0 127 0" result="hardAlpha"/>
<feOffset/>
<feGaussianBlur stdDeviation="5"/>
<feComposite in2="hardAlpha" operator="out"/>
<feColorMatrix type="matrix" values="0 0 0 0 0.329412 0 0 0 0 0.392157 0 0 0 0 0.956863 0 0 0 1 0"/>
<feBlend mode="normal" in2="BackgroundImageFix" result="effect1_dropShadow_20_844"/>
<feBlend mode="normal" in="SourceGraphic" in2="effect1_dropShadow_20_844" result="shape"/>
</filter>
<linearGradient id="paint0_linear_20_844" x1="303.258" y1="125.108" x2="358.569" y2="125.108" gradientUnits="userSpaceOnUse">
<stop offset="0.01"/>
<stop offset="0.08" stop-opacity="0.69"/>
<stop offset="0.21" stop-opacity="0.32"/>
<stop offset="1" stop-opacity="0"/>
</linearGradient>
<linearGradient id="paint1_linear_20_844" x1="115.246" y1="172.752" x2="615.569" y2="572.649" gradientUnits="userSpaceOnUse">
<stop offset="0.01"/>
<stop offset="0.08" stop-opacity="0.69"/>
<stop offset="0.21" stop-opacity="0.32"/>
<stop offset="1" stop-opacity="0"/>
</linearGradient>
<linearGradient id="paint2_linear_20_844" x1="158.613" y1="99.4094" x2="423.998" y2="356.892" gradientUnits="userSpaceOnUse">
<stop offset="0.01"/>
<stop offset="0.08" stop-opacity="0.69"/>
<stop offset="0.21" stop-opacity="0.32"/>
<stop offset="1" stop-opacity="0"/>
</linearGradient>
<linearGradient id="paint3_linear_20_844" x1="228.857" y1="272.915" x2="324.842" y2="260.725" gradientUnits="userSpaceOnUse">
<stop offset="0.01"/>
<stop offset="0.08" stop-opacity="0.69"/>
<stop offset="0.21" stop-opacity="0.32"/>
<stop offset="1" stop-opacity="0"/>
</linearGradient>
<linearGradient id="paint4_linear_20_844" x1="338.755" y1="180.491" x2="368.523" y2="289.021" gradientUnits="userSpaceOnUse">
<stop offset="0.01"/>
<stop offset="0.08" stop-opacity="0.69"/>
<stop offset="0.21" stop-opacity="0.32"/>
<stop offset="1" stop-opacity="0"/>
</linearGradient>
<linearGradient id="paint5_linear_20_844" x1="351.883" y1="176.895" x2="381.634" y2="285.425" gradientUnits="userSpaceOnUse">
<stop offset="0.01"/>
<stop offset="0.08" stop-opacity="0.69"/>
<stop offset="0.21" stop-opacity="0.32"/>
<stop offset="1" stop-opacity="0"/>
</linearGradient>
<linearGradient id="paint6_linear_20_844" x1="198.602" y1="290.613" x2="233.178" y2="332.864" gradientUnits="userSpaceOnUse">
<stop offset="0.01"/>
<stop offset="0.08" stop-opacity="0.69"/>
<stop offset="0.21" stop-opacity="0.32"/>
<stop offset="1" stop-opacity="0"/>
</linearGradient>
<linearGradient id="paint7_linear_20_844" x1="216.831" y1="284.046" x2="173.71" y2="304.781" gradientUnits="userSpaceOnUse">
<stop offset="0.01"/>
<stop offset="0.13" stop-opacity="0.69"/>
<stop offset="0.25" stop-opacity="0.32"/>
<stop offset="1" stop-opacity="0"/>
</linearGradient>
<linearGradient id="paint8_linear_20_844" x1="179.38" y1="302.342" x2="245.293" y2="267.283" gradientUnits="userSpaceOnUse">
<stop offset="0.01"/>
<stop offset="0.13" stop-opacity="0.69"/>
<stop offset="0.25" stop-opacity="0.32"/>
<stop offset="1" stop-opacity="0"/>
</linearGradient>
</defs>
</svg>
