<svg width="50" height="50" viewBox="0 0 50 50" fill="none" xmlns="http://www.w3.org/2000/svg">
<path d="M3.6545 36.2547C8.54922 42.4429 12.5064 40.3215 18.2392 43.9483C21.5061 46.0143 23.7649 50.3197 28.36 49.9811C31.816 49.7258 34.9586 47.0785 36.5078 44.0788C37.2313 42.6774 37.1319 40.5643 37.9202 39.267C39.5481 36.5905 42.2351 35.937 44.8074 34.2193C47.7718 32.238 50.1812 29.6947 49.9893 25.5198C49.8029 21.4475 46.5927 18.5615 45.466 14.7681C44.2868 10.7971 45.5544 7.68361 41.5585 4.90031C38.38 2.68727 34.8094 3.99429 31.5053 3.17983C23.0594 1.09999 18.445 -3.61469 12.0977 4.94194C9.44255 8.52166 8.24269 13.0518 5.39009 16.2944C0.32002 22.0621 -2.8391 28.045 3.6545 36.2547Z" fill="url(#paint0_linear_50_1740)"/>
<path d="M35.2412 18.0934H25.3445L16.6501 15.4502C16.5391 15.4164 16.4209 15.4366 16.3291 15.5054C16.2373 15.5734 16.1827 15.6822 16.1827 15.7958V18.0934H15.2363C15.0371 18.0934 14.874 18.2565 14.874 18.4557V31.2623C14.874 31.462 15.0371 31.6246 15.2363 31.6246H22.7479V33.0589H21.374V33.4212V33.7832H29.1016V33.4212V33.0589H27.7283V31.6246H35.2399C35.4388 31.6246 35.6022 31.462 35.6022 31.2623V18.4557C35.6035 18.2553 35.4416 18.0934 35.2412 18.0934ZM16.9063 18.0934V16.285L22.8555 18.0937L24.0482 18.456L24.877 18.7082V18.8183V30.7573L16.9073 28.3344V18.818V18.4557L16.9063 18.0934ZM34.8789 30.9006H25.601V18.818H27.0242V20.162L27.7296 19.716L28.4349 20.162V18.818H34.8807V30.9L34.8789 30.9006ZM23.6487 21.0331L20.8256 20.1738V19.6968L23.6487 20.5572V21.0331ZM23.6487 22.852L20.8256 21.9925V21.5142L23.6487 22.374V22.852ZM23.6487 24.6856L18.0004 22.9674V22.4916L23.6487 24.2088V24.6856ZM23.6487 26.5027L18.0004 24.7858V24.3081L23.6487 26.025V26.5027ZM23.6487 28.3381L18.0004 26.6203V26.1432L23.6487 27.8598V28.3381ZM18.4837 21.4208L18.6301 20.9413L19.4809 21.1993L19.6323 21.7695L19.8798 21.8448L20.1292 21.9202L19.3364 19.1009L19.0647 19.019L18.7929 18.9371L18.0001 21.2738L18.2439 21.3485L18.4837 21.4208ZM19.0591 19.5928L19.3547 20.7179L18.7607 20.5374L19.0591 19.5928ZM28.7864 22.7308C28.7864 22.3232 29.0625 22.1749 29.4018 22.4038L32.062 24.1964C32.4004 24.4232 32.4004 24.7954 32.062 25.0221L29.4018 26.8151C29.0622 27.043 28.7864 26.8945 28.7864 26.4881V22.7308Z" fill="#F4F5F9"/>
<defs>
<linearGradient id="paint0_linear_50_1740" x1="11.5373" y1="4.59599" x2="39.6901" y2="43.8345" gradientUnits="userSpaceOnUse">
<stop stop-color="#BBC1FB"/>
<stop offset="1" stop-color="#5464F4"/>
</linearGradient>
</defs>
</svg>
