<svg width="21" height="22" viewBox="0 0 21 22" fill="none" xmlns="http://www.w3.org/2000/svg">
<path d="M13.25 15C13.25 14.5858 13.5858 14.25 14 14.25C14.4142 14.25 14.75 14.5858 14.75 15H13.25ZM14.75 7C14.75 7.41421 14.4142 7.75 14 7.75C13.5858 7.75 13.25 7.41421 13.25 7H14.75ZM10 1.75H5V0.25H10V1.75ZM1.75 5V17H0.25V5H1.75ZM5 20.25H10V21.75H5V20.25ZM13.25 17V15H14.75V17H13.25ZM13.25 7V5H14.75V7H13.25ZM10 20.25C11.7949 20.25 13.25 18.7949 13.25 17H14.75C14.75 19.6234 12.6234 21.75 10 21.75V20.25ZM1.75 17C1.75 18.7949 3.20507 20.25 5 20.25V21.75C2.37665 21.75 0.25 19.6234 0.25 17H1.75ZM5 1.75C3.20507 1.75 1.75 3.20507 1.75 5H0.25C0.25 2.37665 2.37665 0.25 5 0.25V1.75ZM10 0.25C12.6234 0.25 14.75 2.37665 14.75 5H13.25C13.25 3.20507 11.7949 1.75 10 1.75V0.25Z" fill="#C7302B"/>
<path d="M17 14L19.2929 11.7071C19.6834 11.3166 19.6834 10.6834 19.2929 10.2929L17 8" stroke="#C7302B" stroke-width="1.5" stroke-linecap="round"/>
<path d="M19 11L7 11" stroke="#C7302B" stroke-width="1.5" stroke-linecap="round"/>
</svg>
