<svg width="442" height="351" viewBox="0 0 442 351" fill="none" xmlns="http://www.w3.org/2000/svg">
<g clip-path="url(#clip0_22_2252)">
<path d="M74.624 341.46C58.5851 338.825 43.4865 332.128 30.7636 322.006C15.7998 310.216 -0.489495 294.328 0.0112619 274.608C0.541475 253.71 8.34739 233.577 16.8013 214.742C28.2304 189.304 44.1368 162.481 39.9245 134.154C35.7123 105.827 41.3679 71.9294 56.2728 47.9358C79.8378 10.1472 121.077 0.980062 162.315 0.0957739C189.562 -0.464275 217.605 1.15692 242.436 12.3874C268.535 24.1779 289.567 45.9903 316.077 56.1007C333.751 62.7623 353.074 64.0888 370.365 71.5757C392.133 81.0376 408.923 99.7845 419.793 120.89C430.662 141.995 436.2 165.428 440.412 188.685C447.305 228.006 430.927 277.114 407.333 309.302C391.603 330.702 365.269 355.491 338.199 350.303C200.373 324.128 226.854 366.191 74.624 341.46Z" fill="#DDE0FD"/>
<g filter="url(#filter0_i_22_2252)">
<path d="M91.1825 322.358C76.9558 320.024 63.5631 314.092 52.2778 305.127C39.0047 294.684 24.5558 280.611 25 263.145C25.4703 244.634 32.3943 226.802 39.893 210.119C50.0307 187.588 64.1399 163.83 60.4036 138.74C56.6673 113.65 61.6839 83.6255 74.9047 62.3735C95.8072 28.9029 132.387 20.7833 168.966 20C193.134 19.504 218.008 20.9399 240.034 30.8871C263.184 41.3303 281.839 60.6504 305.355 69.6054C321.031 75.5059 338.172 76.6807 353.509 83.3122C372.817 91.6929 387.71 108.298 397.352 126.991C406.993 145.685 411.905 166.44 415.641 187.04C421.755 221.868 407.228 265.364 386.299 293.874C372.347 312.829 348.988 334.786 324.977 330.191C202.723 307.007 226.213 344.263 91.1825 322.358Z" fill="white"/>
</g>
<path d="M267.737 118.193H84.6617C76.4494 118.193 69.792 124.85 69.792 133.063V250.031C69.792 258.243 76.4494 264.901 84.6617 264.901H267.737C275.95 264.901 282.607 258.243 282.607 250.031V133.063C282.607 124.85 275.95 118.193 267.737 118.193Z" fill="white"/>
<path d="M267.737 265.408H84.6617C80.5851 265.403 76.6769 263.781 73.7943 260.899C70.9116 258.016 69.2898 254.108 69.2845 250.031V133.052C69.2845 128.973 70.9042 125.061 73.7877 122.175C76.6712 119.29 80.5825 117.668 84.6617 117.665H267.737C271.816 117.668 275.728 119.29 278.611 122.175C281.495 125.061 283.115 128.973 283.115 133.052V250.031C283.109 254.108 281.487 258.016 278.605 260.899C275.722 263.781 271.814 265.403 267.737 265.408ZM84.6617 118.68C80.8517 118.683 77.1986 120.198 74.5054 122.893C71.8123 125.588 70.2995 129.242 70.2995 133.052V250.031C70.3048 253.839 71.8197 257.489 74.512 260.181C77.2043 262.873 80.8542 264.388 84.6617 264.393H267.737C271.545 264.388 275.195 262.873 277.887 260.181C280.579 257.489 282.094 253.839 282.1 250.031V133.052C282.1 129.242 280.587 125.588 277.894 122.893C275.2 120.198 271.547 118.683 267.737 118.68H84.6617Z" fill="#231F20"/>
<path d="M282.972 238.125H70.4517C70.3171 238.125 70.188 238.072 70.0929 237.977C69.9977 237.881 69.9442 237.752 69.9442 237.618C69.9442 237.483 69.9977 237.354 70.0929 237.259C70.188 237.164 70.3171 237.11 70.4517 237.11H282.972C283.107 237.11 283.236 237.164 283.331 237.259C283.426 237.354 283.48 237.483 283.48 237.618C283.48 237.752 283.426 237.881 283.331 237.977C283.236 238.072 283.107 238.125 282.972 238.125Z" fill="#231F20"/>
<path d="M176.235 255.593C175.124 255.595 174.037 255.268 173.113 254.652C172.188 254.036 171.467 253.159 171.041 252.133C170.615 251.107 170.503 249.978 170.719 248.888C170.936 247.798 171.47 246.797 172.256 246.011C173.042 245.226 174.043 244.691 175.132 244.475C176.222 244.259 177.351 244.371 178.378 244.797C179.404 245.223 180.28 245.944 180.896 246.868C181.512 247.793 181.84 248.88 181.838 249.991C181.835 251.476 181.244 252.899 180.194 253.949C179.144 255 177.72 255.591 176.235 255.593ZM176.235 245.443C175.325 245.441 174.435 245.709 173.678 246.213C172.92 246.717 172.329 247.435 171.98 248.275C171.63 249.115 171.538 250.039 171.714 250.932C171.89 251.825 172.327 252.645 172.97 253.289C173.613 253.933 174.432 254.372 175.324 254.55C176.216 254.728 177.141 254.638 177.982 254.29C178.823 253.943 179.542 253.353 180.047 252.597C180.553 251.84 180.823 250.951 180.823 250.041C180.83 249.434 180.716 248.832 180.488 248.268C180.261 247.705 179.924 247.193 179.498 246.761C179.071 246.329 178.563 245.985 178.003 245.75C177.443 245.515 176.842 245.394 176.235 245.393V245.443Z" fill="#D1D3D4"/>
<path d="M214.734 288.682H137.665C135.322 288.682 133.422 290.582 133.422 292.925V293.565C133.422 295.908 135.322 297.807 137.665 297.807H214.734C217.077 297.807 218.977 295.908 218.977 293.565V292.925C218.977 290.582 217.077 288.682 214.734 288.682Z" fill="white"/>
<path d="M214.734 298.335H137.665C136.407 298.335 135.2 297.836 134.31 296.947C133.419 296.059 132.917 294.853 132.915 293.595V292.945C132.915 291.685 133.415 290.475 134.305 289.583C135.196 288.69 136.404 288.188 137.665 288.185H214.734C215.993 288.188 217.2 288.689 218.09 289.579C218.98 290.47 219.481 291.676 219.484 292.935V293.585C219.484 294.845 218.984 296.053 218.093 296.944C217.202 297.835 215.994 298.335 214.734 298.335ZM137.665 289.2C136.674 289.2 135.724 289.594 135.024 290.294C134.323 290.995 133.93 291.945 133.93 292.935V293.585C133.93 294.575 134.323 295.526 135.024 296.226C135.724 296.926 136.674 297.32 137.665 297.32H214.734C215.723 297.32 216.671 296.928 217.372 296.23C218.072 295.531 218.466 294.584 218.469 293.595V292.945C218.469 291.955 218.076 291.005 217.375 290.304C216.675 289.604 215.725 289.21 214.734 289.21L137.665 289.2Z" fill="#231F20"/>
<path d="M205.376 288.835H147.023L151.033 264.901H201.366L205.376 288.835Z" fill="white"/>
<path d="M205.376 289.342H147.023C146.949 289.344 146.875 289.329 146.808 289.297C146.741 289.266 146.683 289.218 146.638 289.159C146.59 289.104 146.556 289.039 146.537 288.969C146.517 288.899 146.514 288.825 146.526 288.753L150.586 264.82C150.605 264.701 150.666 264.594 150.757 264.516C150.848 264.438 150.963 264.394 151.083 264.393H201.417C201.537 264.394 201.653 264.438 201.744 264.516C201.835 264.594 201.895 264.701 201.915 264.82L205.975 288.753C205.985 288.825 205.98 288.898 205.961 288.968C205.942 289.038 205.908 289.103 205.863 289.159C205.806 289.231 205.73 289.286 205.644 289.318C205.559 289.35 205.466 289.358 205.376 289.342ZM147.622 288.327H204.777L200.94 265.408H151.469L147.622 288.327Z" fill="#231F20"/>
<path d="M149.033 276.868L202.168 269.651L201.366 264.901H151.033L149.033 276.868Z" fill="#231F20"/>
<path d="M149.033 277.375C148.896 277.375 148.764 277.32 148.668 277.223C148.613 277.166 148.573 277.096 148.55 277.02C148.527 276.945 148.522 276.865 148.536 276.787L150.566 264.82C150.585 264.701 150.645 264.594 150.736 264.516C150.827 264.438 150.943 264.394 151.063 264.393H201.397C201.517 264.394 201.632 264.438 201.724 264.516C201.815 264.594 201.875 264.701 201.894 264.82L202.696 269.57C202.717 269.705 202.684 269.844 202.605 269.956C202.563 270.01 202.512 270.055 202.452 270.088C202.393 270.121 202.327 270.142 202.26 270.148L149.124 277.365L149.033 277.375ZM151.459 265.408L149.642 276.279L201.58 269.174L200.94 265.358L151.459 265.408Z" fill="#231F20"/>
<path d="M193.226 149.049H159.183C155.747 149.049 152.961 151.834 152.961 155.271V172.475C152.961 175.911 155.747 178.697 159.183 178.697H193.226C196.662 178.697 199.448 175.911 199.448 172.475V155.271C199.448 151.834 196.662 149.049 193.226 149.049Z" fill="#5464F4"/>
<path d="M187.816 156.367H164.583C164.104 156.367 163.63 156.273 163.188 156.09C162.746 155.906 162.345 155.638 162.006 155.3C161.668 154.961 161.399 154.56 161.216 154.118C161.033 153.675 160.939 153.202 160.939 152.723V143.497C160.939 139.448 162.547 135.565 165.41 132.702C168.273 129.839 172.156 128.231 176.205 128.231C180.253 128.231 184.136 129.839 186.999 132.702C189.862 135.565 191.47 139.448 191.47 143.497V152.723C191.467 153.69 191.081 154.617 190.396 155.3C189.711 155.983 188.783 156.367 187.816 156.367ZM168.237 149.069H184.162V143.497C184.2 142.427 184.023 141.361 183.64 140.361C183.257 139.362 182.676 138.45 181.933 137.68C181.19 136.91 180.299 136.297 179.314 135.879C178.329 135.46 177.27 135.245 176.199 135.245C175.129 135.245 174.07 135.46 173.085 135.879C172.1 136.297 171.209 136.91 170.466 137.68C169.723 138.45 169.142 139.362 168.759 140.361C168.376 141.361 168.199 142.427 168.237 143.497V149.069Z" fill="#5464F4"/>
<path d="M176.205 163.716C178.665 163.716 180.66 161.721 180.66 159.26C180.66 156.799 178.665 154.804 176.205 154.804C173.744 154.804 171.749 156.799 171.749 159.26C171.749 161.721 173.744 163.716 176.205 163.716Z" fill="#231F20"/>
<path d="M177.443 160.112H174.956V170.475H177.443V160.112Z" fill="#231F20"/>
<path d="M247.975 222.504H104.434C99.8576 222.504 95.4687 220.686 92.2328 217.45C88.9968 214.215 87.1789 209.826 87.1789 205.249C87.1789 200.673 88.9968 196.284 92.2328 193.048C95.4687 189.812 99.8576 187.994 104.434 187.994H247.975C252.551 187.994 256.94 189.812 260.176 193.048C263.412 196.284 265.23 200.673 265.23 205.249C265.23 209.826 263.412 214.215 260.176 217.45C256.94 220.686 252.551 222.504 247.975 222.504ZM104.434 189.009C100.127 189.009 95.9961 190.72 92.9505 193.766C89.9049 196.812 88.1939 200.942 88.1939 205.249C88.1939 209.556 89.9049 213.687 92.9505 216.733C95.9961 219.778 100.127 221.489 104.434 221.489H247.975C252.282 221.489 256.413 219.778 259.459 216.733C262.504 213.687 264.215 209.556 264.215 205.249C264.215 200.942 262.504 196.812 259.459 193.766C256.413 190.72 252.282 189.009 247.975 189.009H104.434Z" fill="#D1D3D4"/>
<path d="M146.8 206.559L148.992 209.451L146.556 211.147L144.374 208.203L142.232 211.045L139.857 209.34L142.05 206.528L138.558 205.371L139.502 202.661L142.943 203.849V200.337H145.907V203.849L149.348 202.773L150.261 205.473L146.8 206.559Z" fill="black"/>
<path d="M162.675 206.559L164.867 209.451L162.431 211.147L160.239 208.203L158.107 211.045L155.732 209.34L157.914 206.528L154.433 205.371L155.377 202.661L158.807 203.849V200.337H161.781V203.849L165.212 202.773L166.136 205.473L162.675 206.559Z" fill="black"/>
<path d="M178.6 206.559L180.782 209.451L178.356 211.147L176.164 208.203L174.022 211.045L171.647 209.34L173.84 206.528L170.348 205.371L171.292 202.661L174.733 203.849V200.337H177.707V203.849L181.137 202.773L182.051 205.473L178.6 206.559Z" fill="black"/>
<path d="M194.505 206.559L196.697 209.451L194.261 211.147L192.069 208.203L189.937 211.045L187.562 209.34L189.745 206.528L186.263 205.371L187.207 202.661L190.638 203.849V200.337H193.612V203.849L197.042 202.773L197.966 205.473L194.505 206.559Z" fill="black"/>
<path d="M210.44 206.559L212.623 209.451L210.197 211.147L208.004 208.203L205.863 211.045L203.488 209.34L205.68 206.528L202.189 205.371L203.132 202.661L206.573 203.849V200.337H209.547V203.849L212.978 202.773L213.892 205.473L210.44 206.559Z" fill="black"/>
<path d="M367.055 277.822L378.017 226.991L381.671 201.717C381.671 201.717 354.946 173.49 347.344 164.355C339.741 155.22 331.276 142.025 327.155 142.847C323.034 143.669 322.08 148.277 324.557 154.104C325.572 156.499 327.145 159.179 327.815 161.635C328.363 163.665 327.967 169.227 325.998 170.567C323.633 172.171 321.725 163.949 318.751 165.289C317.188 165.999 315.523 169.887 316.721 174.17C317.442 176.228 318.363 178.21 319.472 180.088C321.745 184.036 321.674 186.462 323.065 190.755C324.455 195.049 324.303 189.263 322.679 193.211C320.72 198.002 317.99 203.585 317.696 208.842C317.229 217.247 326.831 231.233 330.809 238.024C334.788 244.814 326.171 263.51 326.171 263.51L367.055 277.822Z" fill="white"/>
<path d="M367.055 278.329C367.001 278.34 366.946 278.34 366.893 278.329L325.927 263.967C325.861 263.943 325.801 263.905 325.75 263.856C325.699 263.807 325.66 263.748 325.633 263.683C325.603 263.619 325.587 263.55 325.587 263.48C325.587 263.41 325.603 263.34 325.633 263.277C325.724 263.094 334.057 244.743 330.302 238.257C329.652 237.141 328.85 235.831 327.977 234.39C323.491 227.062 316.721 215.978 317.127 208.802C317.371 204.265 319.401 199.484 321.187 195.272C321.512 194.501 321.837 193.739 322.141 192.998C322.307 192.551 322.532 192.127 322.811 191.74C322.71 191.496 322.618 191.212 322.507 190.887C322.04 189.426 321.735 188.197 321.492 187.02C321.021 184.67 320.181 182.409 319.005 180.321C317.88 178.384 316.942 176.345 316.203 174.231C314.965 169.653 316.762 165.563 318.548 164.761C320.335 163.959 321.888 165.979 323.136 167.806C323.577 168.538 324.098 169.219 324.689 169.836C325.237 170.344 325.511 170.222 325.704 170.08C327.399 168.933 327.835 163.634 327.308 161.716C326.779 160.031 326.1 158.397 325.278 156.834C324.861 155.971 324.435 155.088 324.08 154.246C322.476 150.45 322.243 147.141 323.44 144.877C323.805 144.199 324.318 143.613 324.943 143.163C325.567 142.713 326.285 142.41 327.044 142.279C330.434 141.619 335.763 148.551 341.924 156.59C343.842 159.087 345.821 161.665 347.729 163.969C355.23 173.104 381.793 201.068 382.057 201.352C382.111 201.408 382.152 201.475 382.176 201.549C382.201 201.622 382.209 201.701 382.199 201.778L378.535 227.052L367.573 277.913C367.557 277.984 367.527 278.051 367.483 278.109C367.439 278.167 367.383 278.214 367.319 278.248C367.243 278.305 367.15 278.334 367.055 278.329ZM326.79 263.165L366.679 277.152L377.52 226.889L381.163 201.91C378.87 199.494 354.165 173.389 346.958 164.66C345.04 162.335 343.05 159.747 341.132 157.25C335.671 150.145 330.018 142.786 327.257 143.324C326.647 143.412 326.065 143.641 325.559 143.993C325.053 144.346 324.637 144.812 324.344 145.354C323.329 147.303 323.562 150.429 325.024 153.85C325.369 154.662 325.775 155.504 326.201 156.387C327.054 158.012 327.757 159.711 328.302 161.462C328.861 163.492 328.526 169.42 326.272 170.942C325.919 171.183 325.488 171.282 325.065 171.22C324.642 171.158 324.258 170.939 323.989 170.607C323.336 169.943 322.761 169.208 322.273 168.415C320.994 166.537 320.01 165.228 318.944 165.715C317.685 166.284 316.041 169.866 317.168 173.998C317.873 176.014 318.777 177.956 319.868 179.793C321.088 181.965 321.961 184.315 322.456 186.756C322.74 187.923 323.034 189.131 323.471 190.552C323.562 190.826 323.643 191.05 323.704 191.222H323.786C323.992 191.296 324.169 191.435 324.289 191.618C324.41 191.801 324.468 192.018 324.455 192.237C324.468 192.395 324.42 192.551 324.322 192.675C324.225 192.799 324.084 192.882 323.928 192.907C323.837 192.926 323.743 192.924 323.654 192.901C323.564 192.878 323.481 192.835 323.41 192.775C323.301 192.978 323.206 193.188 323.126 193.404C322.811 194.145 322.486 194.907 322.162 195.688C320.406 199.829 318.416 204.519 318.173 208.883C317.797 215.755 324.466 226.666 328.881 233.893C329.764 235.344 330.566 236.653 331.215 237.78C334.9 244.093 328.191 260.049 326.82 263.165H326.79Z" fill="#231F20"/>
<path d="M308.072 219.546L350.226 234.324C351.93 234.922 353.795 234.025 354.392 232.321L385.998 142.169C386.595 140.466 385.699 138.601 383.995 138.004L341.841 123.225C340.137 122.628 338.272 123.525 337.675 125.228L306.069 215.38C305.472 217.083 306.369 218.948 308.072 219.546Z" fill="white"/>
<path d="M351.322 234.999C350.897 234.998 350.475 234.926 350.074 234.786L307.911 219.997C306.968 219.664 306.195 218.971 305.761 218.069C305.328 217.168 305.269 216.131 305.597 215.186L337.214 125.034C337.552 124.095 338.246 123.326 339.147 122.897C340.048 122.467 341.083 122.411 342.025 122.74L384.188 137.529C384.656 137.69 385.088 137.943 385.457 138.273C385.827 138.602 386.128 139.002 386.342 139.448C386.556 139.895 386.68 140.379 386.706 140.874C386.732 141.368 386.659 141.863 386.492 142.33L354.875 232.472C354.711 232.94 354.456 233.371 354.125 233.74C353.794 234.109 353.394 234.409 352.946 234.623C352.439 234.866 351.885 234.994 351.322 234.999ZM308.246 219.043L350.409 233.822C350.75 233.943 351.112 233.996 351.474 233.978C351.835 233.959 352.19 233.868 352.516 233.712C352.843 233.555 353.135 233.335 353.376 233.065C353.617 232.794 353.802 232.479 353.921 232.137L385.538 142.025C385.779 141.336 385.736 140.579 385.421 139.921C385.105 139.263 384.541 138.757 383.853 138.513L341.68 123.674C340.989 123.434 340.232 123.477 339.574 123.795C338.915 124.113 338.41 124.679 338.168 125.369L306.561 215.531C306.32 216.221 306.363 216.977 306.679 217.635C306.994 218.293 307.558 218.799 308.246 219.043Z" fill="#231F20"/>
<path d="M355.413 221.489C355.356 221.499 355.297 221.499 355.24 221.489L311.991 206.325C311.865 206.279 311.762 206.185 311.705 206.063C311.647 205.942 311.641 205.802 311.687 205.676L337.681 131.581C337.701 131.517 337.734 131.458 337.777 131.407C337.821 131.356 337.874 131.315 337.935 131.286C338.063 131.241 338.203 131.241 338.33 131.286L381.569 146.45C381.696 146.496 381.8 146.59 381.859 146.711C381.917 146.833 381.927 146.972 381.884 147.1L355.89 221.195C355.847 221.322 355.756 221.428 355.636 221.489C355.562 221.503 355.487 221.503 355.413 221.489ZM312.783 205.503L355.068 220.332L380.757 147.161L338.473 132.332L312.783 205.503Z" fill="#D1D3D4"/>
<path d="M334.463 225.854C334.184 225.855 333.906 225.811 333.641 225.722L325.44 222.829C324.813 222.608 324.298 222.148 324.009 221.549C323.72 220.95 323.68 220.261 323.897 219.632L325.004 216.485C325.224 215.856 325.686 215.339 326.288 215.05C326.889 214.761 327.581 214.722 328.211 214.943L336.432 217.825C337.062 218.046 337.579 218.508 337.868 219.109C338.157 219.711 338.196 220.403 337.975 221.033L336.869 224.179C336.696 224.676 336.37 225.106 335.938 225.407C335.506 225.707 334.99 225.864 334.463 225.854ZM327.358 215.816C327.046 215.817 326.741 215.915 326.487 216.097C326.232 216.279 326.04 216.535 325.937 216.831L324.841 219.977C324.775 220.162 324.747 220.359 324.757 220.555C324.767 220.751 324.816 220.944 324.901 221.121C324.986 221.298 325.105 221.457 325.252 221.588C325.398 221.719 325.569 221.82 325.755 221.885L333.986 224.768C334.361 224.898 334.771 224.875 335.128 224.704C335.486 224.533 335.761 224.227 335.894 223.854L337.001 220.708C337.131 220.331 337.107 219.918 336.934 219.559C336.761 219.199 336.453 218.923 336.077 218.789L327.856 215.907C327.692 215.851 327.521 215.82 327.348 215.816H327.358Z" fill="#D1D3D4"/>
<path d="M370.1 138.473C370.046 138.482 369.991 138.482 369.938 138.473L357.616 134.159C357.489 134.113 357.386 134.019 357.329 133.897C357.272 133.775 357.265 133.636 357.311 133.509C357.355 133.383 357.447 133.28 357.566 133.221C357.686 133.162 357.824 133.152 357.95 133.195L370.273 137.518C370.407 137.541 370.527 137.617 370.606 137.728C370.685 137.839 370.717 137.978 370.694 138.112C370.671 138.247 370.595 138.367 370.484 138.446C370.373 138.525 370.235 138.556 370.1 138.533V138.473Z" fill="#D1D3D4"/>
<path d="M356.144 133.398H355.971L354.327 132.819C354.259 132.801 354.195 132.77 354.14 132.727C354.084 132.683 354.039 132.629 354.005 132.567C353.972 132.505 353.952 132.436 353.947 132.366C353.942 132.296 353.951 132.226 353.974 132.159C353.997 132.093 354.034 132.032 354.082 131.981C354.13 131.929 354.189 131.888 354.253 131.861C354.318 131.833 354.388 131.819 354.458 131.82C354.528 131.821 354.598 131.836 354.662 131.865L356.316 132.443C356.383 132.455 356.447 132.479 356.504 132.515C356.561 132.551 356.611 132.598 356.65 132.653C356.689 132.708 356.717 132.77 356.732 132.836C356.747 132.902 356.749 132.971 356.738 133.037C356.726 133.104 356.702 133.168 356.666 133.225C356.63 133.282 356.583 133.332 356.528 133.371C356.473 133.41 356.41 133.438 356.345 133.453C356.279 133.468 356.21 133.47 356.144 133.458V133.398Z" fill="#D1D3D4"/>
<path d="M346.237 194.561C354.932 194.561 361.98 187.513 361.98 178.819C361.98 170.124 354.932 163.076 346.237 163.076C337.543 163.076 330.495 170.124 330.495 178.819C330.495 187.513 337.543 194.561 346.237 194.561Z" fill="#5464F4"/>
<path d="M330.332 174.099C330.071 174.959 329.555 175.72 328.851 176.28C328.148 176.84 327.291 177.173 326.394 177.235C324.163 177.423 321.943 176.768 320.172 175.398C319.151 174.631 318.292 173.668 317.645 172.566C317.093 171.752 316.746 170.816 316.635 169.839C316.523 168.861 316.651 167.871 317.005 166.953C318.305 164.345 322.456 163.908 325.958 165.573C329.236 167.156 330.972 171.643 330.332 174.099Z" fill="white"/>
<path d="M325.562 177.794C323.497 177.738 321.503 177.027 319.868 175.764C318.794 174.954 317.887 173.944 317.198 172.79C316.6 171.905 316.229 170.887 316.117 169.825C316.006 168.762 316.157 167.689 316.559 166.7C317.939 163.919 322.253 163.198 326.181 165.086C329.632 166.75 331.54 171.43 330.83 174.221C330.544 175.182 329.973 176.034 329.191 176.663C328.41 177.293 327.455 177.669 326.455 177.743C326.158 177.775 325.86 177.792 325.562 177.794ZM321.756 165.086C319.807 165.086 318.142 165.817 317.462 167.177C317.138 168.018 317.025 168.926 317.133 169.822C317.241 170.717 317.567 171.572 318.081 172.313C318.694 173.356 319.509 174.266 320.477 174.992C322.141 176.288 324.231 176.911 326.333 176.738C327.129 176.683 327.89 176.389 328.517 175.894C329.143 175.4 329.606 174.728 329.845 173.967C330.393 171.836 328.921 167.562 325.785 166.03C324.53 165.417 323.153 165.094 321.756 165.086Z" fill="#231F20"/>
<path d="M325.44 186.046C325.611 186.658 325.642 187.301 325.53 187.927C325.417 188.553 325.164 189.145 324.79 189.659C324.278 190.235 323.639 190.683 322.923 190.968C321.982 191.444 320.948 191.704 319.895 191.73C318.842 191.757 317.796 191.548 316.833 191.121C315.715 190.446 314.761 189.53 314.042 188.441C312.722 186.634 311.575 184.523 311.717 182.28C311.91 179.052 315.554 175.49 318.822 177.134C321.542 178.484 324.76 183.173 325.44 186.046Z" fill="white"/>
<path d="M319.502 192.257C318.486 192.269 317.483 192.032 316.579 191.567C315.387 190.863 314.373 189.894 313.615 188.735C311.839 186.309 311.068 184.249 311.189 182.249C311.306 181.159 311.674 180.111 312.264 179.186C312.854 178.262 313.65 177.486 314.59 176.921C315.252 176.503 316.01 176.262 316.791 176.219C317.573 176.177 318.352 176.334 319.056 176.677C321.908 178.098 325.227 182.95 325.948 185.924C326.139 186.613 326.171 187.337 326.041 188.04C325.91 188.744 325.622 189.409 325.196 189.984C324.64 190.619 323.946 191.119 323.166 191.445C322.016 191.972 320.767 192.248 319.502 192.257ZM317.097 177.225C316.38 177.231 315.679 177.431 315.067 177.804C314.266 178.276 313.587 178.93 313.084 179.713C312.582 180.496 312.27 181.385 312.174 182.31C312.062 184.066 312.773 185.914 314.397 188.136C315.075 189.163 315.968 190.029 317.016 190.674C317.913 191.074 318.89 191.266 319.872 191.236C320.854 191.206 321.817 190.955 322.689 190.501C323.34 190.253 323.921 189.853 324.384 189.334C324.709 188.882 324.926 188.362 325.019 187.813C325.112 187.264 325.079 186.701 324.922 186.167C324.273 183.447 321.147 178.87 318.579 177.591C318.119 177.356 317.612 177.231 317.097 177.225Z" fill="#231F20"/>
<path d="M320.426 194.896C320.929 195.596 321.275 196.396 321.441 197.241C321.564 198.202 321.41 199.178 320.996 200.054C320.582 200.93 319.927 201.669 319.106 202.184C318.279 202.681 317.362 203.009 316.407 203.149C315.452 203.288 314.479 203.236 313.544 202.996C312.429 202.751 311.378 202.274 310.46 201.595C309.542 200.917 308.777 200.052 308.215 199.058C307.674 198.051 307.404 196.922 307.431 195.78C307.457 194.637 307.78 193.522 308.368 192.542C311.646 187.477 317.858 191.181 320.426 194.896Z" fill="white"/>
<path d="M315.422 203.727C314.756 203.724 314.092 203.645 313.443 203.493C312.256 203.23 311.139 202.72 310.163 201.996C309.187 201.272 308.375 200.35 307.779 199.291C307.191 198.208 306.897 196.989 306.927 195.756C306.957 194.524 307.311 193.321 307.952 192.268C308.416 191.465 309.079 190.794 309.877 190.322C310.675 189.849 311.582 189.589 312.509 189.568C315.635 189.476 319.086 192.065 320.842 194.643C321.397 195.398 321.776 196.269 321.948 197.19C322.089 198.247 321.923 199.322 321.47 200.287C321.016 201.251 320.294 202.065 319.391 202.631C318.202 203.374 316.823 203.755 315.422 203.727ZM312.61 190.532H312.529C311.767 190.547 311.023 190.76 310.369 191.152C309.716 191.544 309.176 192.1 308.804 192.765C308.266 193.668 307.971 194.696 307.948 195.747C307.925 196.798 308.174 197.837 308.672 198.764C309.199 199.694 309.916 200.504 310.776 201.138C311.637 201.773 312.621 202.22 313.666 202.448C314.534 202.678 315.44 202.731 316.33 202.603C317.219 202.476 318.073 202.171 318.842 201.707C319.574 201.241 320.159 200.579 320.532 199.797C320.906 199.014 321.052 198.143 320.954 197.282C320.797 196.508 320.475 195.777 320.01 195.14C318.416 192.887 315.371 190.572 312.61 190.572V190.532Z" fill="#231F20"/>
<path d="M377.54 228.422C377.54 228.422 386.299 202.489 385.081 196.317C383.863 190.146 381.915 165.269 379.408 164.223C376.901 163.178 371.562 170.039 371.389 177.753C371.282 182.303 371.874 186.842 373.145 191.212C373.145 191.212 364.558 194.632 362.863 215.369" fill="white"/>
<path d="M377.54 228.929H377.378C377.251 228.883 377.147 228.79 377.088 228.668C377.03 228.547 377.02 228.408 377.063 228.28C377.154 228.026 385.761 202.407 384.584 196.429C384.208 194.511 383.762 190.867 383.254 186.634C382.351 179.194 380.676 165.319 379.194 164.71C378.916 164.648 378.628 164.652 378.351 164.72C378.074 164.789 377.818 164.921 377.601 165.106C375.287 166.608 372.018 171.846 371.886 177.783C371.772 182.272 372.34 186.752 373.571 191.07C373.609 191.193 373.6 191.325 373.545 191.441C373.491 191.557 373.395 191.649 373.277 191.699C373.196 191.699 364.944 195.333 363.31 215.43C363.299 215.564 363.235 215.689 363.132 215.777C363.029 215.864 362.896 215.907 362.762 215.897C362.627 215.886 362.502 215.822 362.415 215.719C362.327 215.617 362.284 215.483 362.295 215.349C363.797 196.916 370.668 192.004 372.445 190.989C371.275 186.691 370.734 182.246 370.841 177.794C370.973 171.846 374.15 166.141 377.022 164.284C377.369 163.993 377.784 163.796 378.228 163.712C378.673 163.629 379.132 163.661 379.56 163.807C381.275 164.517 382.392 171.399 384.219 186.543C384.726 190.755 385.173 194.389 385.538 196.267C386.766 202.509 378.342 227.569 377.987 228.635C377.947 228.721 377.884 228.794 377.805 228.846C377.726 228.898 377.634 228.927 377.54 228.929Z" fill="#231F20"/>
<path d="M338.138 185.041C337.84 185.045 337.546 184.984 337.275 184.861C337.004 184.739 336.763 184.559 336.569 184.333C336.376 184.108 336.234 183.842 336.154 183.556C336.074 183.269 336.059 182.969 336.108 182.676L337.6 173.683C337.629 173.408 337.714 173.142 337.849 172.901C337.985 172.66 338.168 172.449 338.388 172.282C338.608 172.114 338.86 171.993 339.129 171.926C339.397 171.86 339.676 171.849 339.949 171.894C340.222 171.939 340.482 172.039 340.715 172.188C340.948 172.338 341.148 172.533 341.302 172.762C341.457 172.992 341.563 173.25 341.614 173.522C341.665 173.794 341.66 174.073 341.599 174.343L340.645 180.128L354.692 175.896C355.208 175.737 355.765 175.789 356.242 176.041C356.719 176.294 357.076 176.725 357.235 177.24C357.394 177.756 357.341 178.313 357.089 178.79C356.837 179.267 356.406 179.624 355.89 179.783L338.716 184.949C338.529 185.008 338.334 185.038 338.138 185.041Z" fill="white"/>
<path d="M365.857 297.807L374.008 256.669L328.952 244.266L311.788 297.807H365.857Z" fill="#231F20"/>
<path d="M365.857 298.335H311.778C311.699 298.334 311.622 298.316 311.552 298.28C311.481 298.245 311.42 298.194 311.372 298.132C311.326 298.066 311.296 297.991 311.284 297.912C311.272 297.833 311.277 297.752 311.301 297.675L328.485 244.114C328.527 243.99 328.614 243.887 328.729 243.825C328.844 243.763 328.978 243.746 329.104 243.779L374.16 256.182C374.284 256.216 374.391 256.295 374.459 256.404C374.527 256.514 374.55 256.645 374.525 256.771L366.405 297.909C366.383 298.035 366.315 298.149 366.213 298.227C366.112 298.306 365.985 298.345 365.857 298.335ZM312.478 297.32H365.441L373.419 257.045L329.287 244.865L312.478 297.32Z" fill="#231F20"/>
<path d="M248.635 159.757C248.635 159.757 269.95 138.442 295.437 143.213L293.742 150.815L309.484 145.07L298.319 128.962L297.355 135.823C297.355 135.823 275.137 127.206 240.606 142.279L248.635 159.757Z" fill="#231F20"/>
<path d="M248.635 160.295H248.544C248.462 160.283 248.385 160.251 248.319 160.201C248.254 160.152 248.202 160.086 248.168 160.011L240.18 142.461C240.153 142.401 240.138 142.335 240.138 142.269C240.138 142.202 240.153 142.136 240.18 142.076C240.2 142.012 240.235 141.953 240.28 141.904C240.326 141.855 240.382 141.817 240.444 141.792C271.675 128.16 293.224 133.905 296.979 135.123L297.862 128.86C297.877 128.761 297.921 128.667 297.989 128.593C298.057 128.518 298.146 128.465 298.244 128.441C298.342 128.417 298.445 128.423 298.54 128.458C298.635 128.493 298.717 128.555 298.776 128.637L309.941 144.745C309.986 144.81 310.014 144.884 310.025 144.961C310.035 145.039 310.028 145.118 310.002 145.192C309.981 145.265 309.942 145.332 309.889 145.387C309.836 145.442 309.77 145.483 309.697 145.506L293.975 151.292C293.889 151.322 293.797 151.329 293.707 151.311C293.618 151.293 293.535 151.251 293.467 151.19C293.399 151.132 293.347 151.055 293.319 150.969C293.29 150.884 293.285 150.792 293.305 150.703L294.878 143.598C270.224 139.345 249.203 159.889 249.041 160.102C248.992 160.162 248.93 160.211 248.86 160.244C248.789 160.277 248.713 160.295 248.635 160.295ZM241.276 142.543L248.797 158.945C252.248 155.758 272.315 138.432 295.487 142.705C295.624 142.733 295.744 142.813 295.822 142.928C295.896 143.043 295.921 143.181 295.893 143.314L294.401 150.013L308.611 144.776L298.563 130.271L297.771 135.854C297.762 135.93 297.735 136.002 297.693 136.066C297.651 136.129 297.594 136.182 297.527 136.219C297.459 136.252 297.385 136.269 297.309 136.269C297.234 136.269 297.159 136.252 297.091 136.219C296.949 136.189 274.923 127.988 241.276 142.512V142.543Z" fill="#231F20"/>
</g>
<defs>
<filter id="filter0_i_22_2252" x="24.99" y="19.9152" width="392.06" height="310.893" filterUnits="userSpaceOnUse" color-interpolation-filters="sRGB">
<feFlood flood-opacity="0" result="BackgroundImageFix"/>
<feBlend mode="normal" in="SourceGraphic" in2="BackgroundImageFix" result="shape"/>
<feColorMatrix in="SourceAlpha" type="matrix" values="0 0 0 0 0 0 0 0 0 0 0 0 0 0 0 0 0 0 127 0" result="hardAlpha"/>
<feOffset/>
<feGaussianBlur stdDeviation="5"/>
<feComposite in2="hardAlpha" operator="arithmetic" k2="-1" k3="1"/>
<feColorMatrix type="matrix" values="0 0 0 0 0.865882 0 0 0 0 0.878431 0 0 0 0 0.991373 0 0 0 1 0"/>
<feBlend mode="normal" in2="shape" result="effect1_innerShadow_22_2252"/>
</filter>
<clipPath id="clip0_22_2252">
<rect width="442" height="351" fill="white"/>
</clipPath>
</defs>
</svg>
