<svg width="20" height="15" viewBox="0 0 20 15" fill="none" xmlns="http://www.w3.org/2000/svg">
<circle r="3.06383" transform="matrix(-1 0 0 1 10.1915 4.0638)" stroke="#AAB2C4" stroke-width="1.5"/>
<path d="M4.82979 11.6735C4.82979 11.0145 5.24406 10.4266 5.86467 10.205V10.205C8.66267 9.20567 11.7203 9.20567 14.5183 10.205V10.205C15.1389 10.4266 15.5532 11.0145 15.5532 11.6735V12.6811C15.5532 13.5906 14.7476 14.2893 13.8472 14.1606L13.547 14.1178C11.3213 13.7998 9.06167 13.7998 6.83593 14.1178L6.53573 14.1606C5.63535 14.2893 4.82979 13.5906 4.82979 12.6811V11.6735Z" stroke="#AAB2C4" stroke-width="1.5"/>
<path d="M14.7872 7.21241C16.1167 7.21241 17.1945 6.13463 17.1945 4.80512C17.1945 3.47561 16.1167 2.39783 14.7872 2.39783" stroke="#AAB2C4" stroke-width="1.5" stroke-linecap="round"/>
<path d="M17.4237 12.7045L17.6596 12.7382C18.367 12.8392 19 12.2903 19 11.5757V10.784C19 10.2662 18.6745 9.8043 18.1869 9.63015C17.7005 9.45643 17.2041 9.32115 16.7021 9.2243" stroke="#AAB2C4" stroke-width="1.5" stroke-linecap="round"/>
<path d="M5.21275 7.21241C3.88324 7.21241 2.80546 6.13463 2.80546 4.80512C2.80546 3.47561 3.88324 2.39783 5.21275 2.39783" stroke="#AAB2C4" stroke-width="1.5" stroke-linecap="round"/>
<path d="M2.57625 12.7045L2.34038 12.7382C1.63294 12.8392 0.999995 12.2903 0.999995 11.5757V10.784C0.999995 10.2662 1.32549 9.8043 1.81311 9.63015C2.29952 9.45643 2.79591 9.32115 3.29787 9.2243" stroke="#AAB2C4" stroke-width="1.5" stroke-linecap="round"/>
</svg>
