<svg width="500" height="156" viewBox="0 0 500 156" fill="none" xmlns="http://www.w3.org/2000/svg">
<path d="M469.099 146.586C444.032 140.268 415.048 136.93 387.715 132.087C374.329 129.715 361.199 127.03 349.624 123.677C336.883 119.988 325.818 115.627 315.129 111.233C304.426 106.834 293.535 102.431 283.275 97.9109C273.887 93.7737 267.355 88.9361 257.994 84.7755C239.284 76.4684 211.789 73.8208 183.517 71.6541C170.252 70.6408 157.336 69.5155 146.526 66.4943C136.266 63.6272 128.809 59.8355 122.626 55.8384C109.321 47.2418 101.985 37.7205 89.3777 29.0119C75.6304 19.5093 56.3573 10.9828 30.5257 5.16452C20.9764 3.01186 10.5687 1.31215 -6.81898e-06 1.52588e-05L0 156L500 156C490.37 152.554 480.405 149.439 469.099 146.586Z" fill="url(#paint0_linear_22_4269)"/>
<defs>
<linearGradient id="paint0_linear_22_4269" x1="512.339" y1="168.57" x2="376.603" y2="-191.545" gradientUnits="userSpaceOnUse">
<stop stop-color="#5464F4"/>
<stop offset="1" stop-color="#BBC1FB"/>
</linearGradient>
</defs>
</svg>
